<svg version="1.1" id="Layer_1" xmlns="http://www.w3.org/2000/svg" xmlns:xlink="http://www.w3.org/1999/xlink" x="0px" y="0px" width="100%" viewBox="0 0 1024 1024" enable-background="new 0 0 1024 1024" xml:space="preserve">

<path fill="#482902" opacity="1.000000" stroke="none" d="
M755.081665,651.948547 
	C755.124207,652.802490 755.166748,653.656372 755.100220,655.180359 
	C755.279175,658.565918 755.567200,661.281372 755.584961,664.313538 
	C754.556152,674.176331 753.781433,683.721252 753.079956,693.271545 
	C753.039307,693.825500 753.591980,694.423035 753.889343,695.363525 
	C751.416809,700.602478 748.888123,705.460754 746.466370,710.371826 
	C746.081787,711.151733 746.179199,712.169250 746.053711,713.076904 
	C746.053772,713.076904 746.002319,713.011108 745.790100,712.703918 
	C737.244141,721.200623 728.030151,728.666870 715.729309,731.598083 
	C709.719849,731.888062 703.984863,732.915344 698.249084,732.919617 
	C573.261475,733.013367 448.273834,732.989258 323.286194,733.030273 
	C321.196106,733.030945 319.106201,733.558777 316.582550,733.920105 
	C313.866394,733.779968 311.544006,733.755859 309.309631,733.300293 
	C304.483704,732.316223 299.702942,731.110840 294.903687,729.995972 
	C294.903687,729.995972 295.018982,729.985291 295.039062,729.652100 
	C290.674011,726.073547 286.288818,722.828186 281.804199,719.255737 
	C281.340179,718.688354 280.975586,718.448059 280.698914,718.197144 
	C280.786835,718.186584 280.732513,718.355164 280.701477,718.065918 
	C280.373657,717.550110 280.076813,717.323608 279.835297,717.090759 
	C279.890625,717.084473 279.866211,717.193115 279.889709,716.840149 
	C278.861481,715.366028 277.809753,714.244873 276.813965,713.114746 
	C276.869934,713.105835 276.842957,713.215881 276.871216,712.853394 
	C275.862183,711.023193 274.824890,709.555542 273.842285,708.084167 
	C273.897003,708.080505 273.869324,708.186646 273.906677,707.804688 
	C273.162811,706.026123 272.381653,704.629517 271.660950,703.203430 
	C271.721375,703.173889 271.699280,703.306580 271.797272,702.871704 
	C271.263428,695.382202 270.037201,688.319336 270.134308,681.274719 
	C270.293579,669.718750 271.408569,658.179077 271.945374,646.624451 
	C272.728516,629.767639 273.356476,612.903625 274.325500,595.728882 
	C275.070435,586.985291 275.543457,578.555725 276.009735,570.125793 
	C276.695679,557.724731 277.310333,545.319214 278.075195,532.922974 
	C279.328949,512.604553 280.691620,492.292847 281.983368,471.976715 
	C282.666046,461.239441 283.313599,450.499786 283.945862,439.759399 
	C285.278442,417.122253 286.590454,394.483917 287.920166,371.896637 
	C287.929474,371.947205 287.826752,371.942230 288.091583,371.845581 
	C288.546570,371.435913 288.736755,371.122925 288.929260,370.864624 
	C288.931580,370.919312 288.824707,370.895630 289.265594,370.932617 
	C292.133087,370.375885 294.559662,369.782135 297.054504,368.783569 
	C296.494507,365.761383 295.866241,363.143982 295.237976,360.526581 
	C293.805237,357.969391 292.372467,355.412231 291.025055,352.124023 
	C290.186859,349.831360 289.372131,348.192017 288.322571,346.720184 
	C279.420868,334.237030 285.388458,321.500244 296.755219,315.408081 
	C298.201569,314.632904 299.593567,313.714020 300.888428,312.704803 
	C317.532593,299.732086 332.349060,285.245544 340.501709,264.930176 
	C341.443787,264.118469 342.364594,263.459473 342.590179,262.614777 
	C345.128448,253.110535 347.851562,243.639832 349.897400,234.026550 
	C350.924866,229.198532 350.668213,224.097244 350.905945,218.696335 
	C350.939636,216.841599 351.059692,215.410065 351.557220,213.868195 
	C352.626068,206.790329 353.685669,199.835297 353.922394,192.852371 
	C354.276489,182.406876 354.842712,172.062119 358.438110,162.111359 
	C358.811249,161.078598 358.665680,159.858429 358.776794,158.785919 
	C358.792816,158.846634 358.672546,158.810532 359.037476,158.747849 
	C359.899506,157.402435 360.396606,156.119705 360.906921,154.883820 
	C360.920105,154.930695 360.822754,154.929031 361.085938,154.803253 
	C361.434998,154.314178 361.520844,153.950882 361.627472,153.657852 
	C361.648224,153.728134 361.521301,153.654816 361.856720,153.619766 
	C362.423462,152.999786 362.654785,152.414841 362.905579,151.875885 
	C362.925049,151.921860 362.829559,151.892548 363.188873,151.890778 
	C364.023132,150.925812 364.498047,149.962601 365.088867,148.662781 
	C367.248901,146.306549 369.051910,143.939178 371.378113,142.326324 
	C382.629211,134.525436 395.029358,130.570145 408.889557,130.827011 
	C412.690521,130.897446 416.545471,128.907257 420.345093,127.761345 
	C421.799866,127.322609 423.158661,126.118279 424.579071,126.087471 
	C432.400604,125.917809 440.264587,125.545982 448.038849,126.174118 
	C452.651672,126.546822 457.501740,127.999962 459.645386,133.168030 
	C459.689606,133.867950 459.945404,134.396851 460.147888,134.932816 
	C460.094604,134.939880 460.109863,134.833466 460.067047,135.254700 
	C461.575958,140.773239 463.127716,145.870575 464.805420,151.214386 
	C464.900391,151.642776 464.869476,151.824692 464.581177,152.304718 
	C464.540497,155.514572 464.564789,158.456421 465.014313,161.331802 
	C465.937683,167.238068 467.088715,173.108749 468.095459,178.989746 
	C468.044861,178.985397 468.065430,178.886002 468.035583,179.350342 
	C468.612671,186.533249 469.219574,193.251846 470.011292,200.360336 
	C470.475128,205.458633 470.754181,210.167007 471.012512,215.351746 
	C470.671814,229.012665 470.234253,242.195892 470.087860,255.382385 
	C470.026428,260.917511 470.581299,266.459473 470.926208,272.383850 
	C470.667023,274.977661 470.337646,277.185913 470.231537,279.774292 
	C472.033234,280.438995 473.610809,280.965179 475.190216,280.970642 
	C490.454376,281.023712 505.718842,280.989288 521.344727,280.981506 
	C523.941833,280.683929 524.790894,279.919678 522.728149,278.140930 
	C522.801208,278.127563 522.765808,278.271820 522.837585,277.859619 
	C521.161865,273.355011 519.414368,269.262604 517.734375,265.157318 
	C517.801880,265.144409 517.762329,265.276031 517.832153,264.856018 
	C516.178772,260.001038 514.455566,255.566116 512.791199,251.118484 
	C512.849976,251.105774 512.826965,251.223831 512.892090,250.795898 
	C510.474640,241.082291 508.001862,231.793900 505.461639,222.524002 
	C505.385559,222.246368 504.602936,222.162369 504.068542,221.574280 
	C503.796753,220.064941 503.612640,218.968231 503.414459,217.874069 
	C501.914978,209.595810 500.412781,201.318069 499.183685,192.794495 
	C499.689575,185.716812 499.570740,178.846130 500.313873,172.069992 
	C500.656677,168.944168 502.684753,166.003143 504.060608,162.658524 
	C509.559326,156.560562 515.397644,151.548248 524.071167,150.973236 
	C529.960510,153.133942 532.199707,157.379120 533.894592,162.892014 
	C542.669373,191.433609 551.638489,219.921265 561.023621,248.267548 
	C567.780090,268.674469 577.178162,287.532898 595.636169,300.327179 
	C602.763916,305.267761 606.010864,311.733521 605.192871,321.028809 
	C603.615173,338.957153 613.650330,353.275574 622.077393,368.361542 
	C622.882629,368.765198 623.364990,368.962189 623.847534,368.962708 
	C646.546997,368.987366 669.246399,369.008118 691.945801,368.961792 
	C692.973511,368.959686 693.999878,368.334106 694.895142,367.676544 
	C693.776367,365.639130 692.730103,363.955139 691.812378,362.203796 
	C687.029480,353.076630 684.295654,343.582672 686.778870,333.190704 
	C688.503784,325.972168 688.505554,325.972595 696.043152,326.654907 
	C696.015991,331.603363 695.595947,336.150879 696.128845,340.583832 
	C696.539185,343.997650 698.147400,347.267487 699.495605,350.853516 
	C703.540588,357.054596 707.312988,363.003479 710.928406,369.196350 
	C712.252319,369.957611 713.726074,370.896088 715.215088,370.920868 
	C722.535645,371.042847 729.860107,370.922089 737.138306,370.897095 
	C737.093445,370.907196 737.108582,370.816498 737.092285,371.224518 
	C737.710632,376.011932 738.481750,380.377106 738.941528,384.774780 
	C739.399658,389.156158 739.545593,393.570221 740.015259,398.356995 
	C740.407715,402.837463 740.613281,406.930939 740.571289,411.324585 
	C740.246704,412.934723 740.021423,414.255554 740.117065,415.552765 
	C740.697449,423.427795 741.489075,431.289490 741.942810,439.171021 
	C742.445557,447.902802 742.632874,456.652466 743.046753,465.390076 
	C743.088562,466.272583 743.745239,467.125916 744.075378,467.989563 
	C744.034180,467.986389 744.050110,467.905304 744.030090,468.379944 
	C744.333740,475.235779 744.657349,481.617035 744.981812,488.466492 
	C745.593079,499.939362 746.203491,510.943939 746.898132,522.374023 
	C747.333313,528.820984 747.684265,534.842468 748.015869,541.341064 
	C748.650879,554.731384 749.340637,567.642944 749.950745,580.558289 
	C750.670776,595.801514 751.308289,611.048645 752.009277,626.292786 
	C752.306335,632.751343 752.594971,639.212646 753.083801,645.657837 
	C753.170349,646.799316 754.224487,647.867432 754.909973,649.335571 
	C755.019287,650.450684 755.050476,651.199585 755.081665,651.948547 
M693.724548,708.126709 
	C693.886963,707.773560 694.049377,707.420410 694.091431,707.064514 
	C694.091431,707.064514 694.118408,707.181885 694.708008,706.805237 
	C696.710938,701.057007 698.713928,695.308716 700.948730,690.173767 
	C701.259583,690.346313 701.570374,690.518860 701.881287,690.691406 
	C701.915161,690.531311 701.978821,690.371094 701.978638,690.210999 
	C701.971497,684.481812 701.958374,678.752563 701.972168,672.141602 
	C701.322510,662.224670 700.499695,652.315186 700.067444,642.388794 
	C699.539917,630.274780 699.395386,618.144409 698.922363,606.027405 
	C698.869385,604.669373 697.758545,603.352722 696.973389,601.109314 
	C696.779602,596.386536 696.585754,591.663696 697.002869,586.709656 
	C696.738892,585.151001 696.474915,583.592407 696.047485,581.351135 
	C696.080933,580.886963 696.114380,580.422791 696.678406,579.329407 
	C696.440735,565.200867 696.250183,551.071045 695.888245,536.945679 
	C695.854309,535.619202 694.739990,534.320374 693.964111,532.387695 
	C693.914124,531.962952 693.864075,531.538147 694.474976,530.558105 
	C694.324951,522.818298 694.206116,515.077759 694.017883,507.338837 
	C693.699280,494.244415 693.386719,481.149261 692.918091,468.059967 
	C692.869324,466.698883 691.784424,465.374939 691.026184,463.135223 
	C690.618347,456.412689 690.210571,449.690186 689.921326,442.041321 
	C689.111633,422.130768 688.302002,402.220245 687.839844,381.783783 
	C687.671814,381.416138 687.503723,381.048523 687.141968,380.340790 
	C687.141968,380.340790 687.000732,379.975769 686.409302,379.387299 
	C685.928101,379.271790 685.446960,379.055695 684.965637,379.055267 
	C659.506226,379.031281 634.046692,379.009918 608.587463,379.066895 
	C607.389648,379.069550 606.193420,379.786438 604.922119,380.695160 
	C604.854248,380.858185 604.786438,381.021210 604.242432,381.818878 
	C604.164795,401.108368 604.077698,420.397858 604.045105,439.687439 
	C604.043823,440.440277 604.564636,441.193970 604.969604,442.462280 
	C604.965454,442.639038 604.961304,442.815826 604.483643,443.359894 
	C603.604797,444.128693 602.725952,444.897491 601.183289,445.220947 
	C597.387024,445.152252 593.588562,444.968567 589.794861,445.039124 
	C582.239014,445.179688 574.685852,445.459991 566.605774,445.572052 
	C565.896729,445.027405 565.187683,444.482758 564.259338,443.451813 
	C564.253601,443.274506 564.247864,443.097229 564.737854,442.273926 
	C564.820923,422.735260 564.917908,403.196594 564.941223,383.657837 
	C564.942322,382.784912 564.274658,381.911194 562.993530,380.969604 
	C528.640259,380.982758 494.287048,380.995880 459.170685,381.239319 
	C458.787750,382.747833 458.076691,384.255280 458.071625,385.765045 
	C458.006439,405.210571 458.041901,424.656403 458.024841,444.025177 
	C458.024841,444.025177 458.102051,444.051636 457.240997,444.023651 
	C446.460815,444.333038 435.681854,444.773682 424.899750,444.870880 
	C421.713654,444.899567 419.893097,443.015533 419.946350,439.363800 
	C420.101776,428.707764 420.000549,418.048004 420.000244,407.389709 
	C420.000000,398.952148 420.000183,390.514557 420.000183,382.076996 
	C419.675385,382.078857 419.350586,382.080719 419.025787,382.082581 
	C419.025787,402.363403 419.025787,422.644257 418.529907,442.686920 
	C418.368500,442.599915 418.207062,442.512939 418.221252,442.262726 
	C418.221252,442.262726 418.097809,442.057220 418.211731,441.117737 
	C418.211731,421.197266 418.211731,401.276764 418.211731,380.792084 
	C395.542358,380.792084 373.277252,380.792084 351.673340,380.299133 
	C370.313049,380.198608 388.952759,380.095795 407.592468,379.999847 
	C410.708069,379.983795 413.823792,379.997559 416.939453,379.997559 
	C416.933990,379.774689 416.928528,379.551849 416.923035,379.328979 
	C377.386932,379.328979 337.850830,379.328979 298.314728,379.328979 
	C310.443115,379.996399 322.573273,379.964233 334.702820,380.031982 
	C336.469299,380.041870 338.233154,380.528931 339.075165,380.966888 
	C325.390228,381.010376 311.705322,381.053864 297.238892,381.441589 
	C296.976593,386.244263 296.707916,391.046570 296.453217,395.849640 
	C295.690979,410.223083 294.934235,424.596802 294.009827,439.650299 
	C294.044312,440.113129 294.078766,440.575928 294.003418,441.914551 
	C293.618958,446.950989 293.234497,451.987457 292.087952,457.235687 
	C291.727112,458.255341 291.119904,459.257568 291.046173,460.297577 
	C290.628418,466.191132 290.220215,472.090057 290.036987,477.994263 
	C289.841095,484.307037 289.898315,490.627625 289.979919,497.846619 
	C290.057251,500.575745 290.134613,503.304871 290.082336,506.940491 
	C289.652832,514.302368 289.223358,521.664307 288.040466,529.250427 
	C287.697174,529.949524 287.088257,530.634888 287.051300,531.349792 
	C286.642212,539.263611 286.351837,547.183411 285.968048,555.098633 
	C285.656372,561.525513 285.221832,567.946594 284.921326,574.373962 
	C284.787323,577.239685 284.848755,580.114624 284.955048,583.887756 
	C284.934235,586.604309 284.913422,589.320862 284.321503,592.538391 
	C283.880371,594.265015 283.194946,595.970520 283.043915,597.722168 
	C282.591980,602.963501 282.217957,608.218872 282.057983,613.476196 
	C281.860626,619.963928 281.909180,626.459229 281.984100,633.861877 
	C282.051331,636.930725 282.118591,639.999573 282.046997,643.961853 
	C281.486755,653.393188 280.781494,662.818787 280.406555,672.257446 
	C280.022583,681.923584 278.463654,691.747131 283.195740,701.643677 
	C288.812012,713.447876 298.091248,720.195496 311.683350,721.965393 
	C312.097168,722.021423 312.511017,722.077454 312.997406,722.487549 
	C312.997406,722.487549 313.023407,722.848022 313.538971,723.513245 
	C314.676666,723.670410 315.814331,723.964966 316.952057,723.965149 
	C433.292419,723.987122 549.632751,723.989441 665.973145,723.943237 
	C666.947571,723.942871 667.921814,723.267578 668.997803,722.540283 
	C668.997803,722.540283 669.091064,722.171021 669.795227,722.072632 
	C670.499084,721.980408 671.202942,721.888184 672.663513,721.853394 
	C680.878174,719.845764 687.991577,716.098145 693.291260,708.720154 
	C693.291260,708.720154 693.396118,708.319458 693.312622,708.145935 
	C693.312622,708.145935 693.144653,708.240112 693.724548,708.126709 
M443.442444,300.468933 
	C443.442444,300.468933 443.331543,300.285950 442.743591,300.328949 
	C442.597900,300.665710 442.452179,301.002472 442.101746,301.216888 
	C442.101746,301.216888 442.330841,301.283234 441.743164,301.327942 
	C441.597504,301.664612 441.451843,302.001282 441.095459,302.207428 
	C441.095459,302.207428 441.331116,302.284210 440.742889,302.327423 
	C440.598145,302.664459 440.453400,303.001526 440.352081,303.086884 
	C440.352081,303.086884 440.340393,303.342651 439.648376,303.327606 
	C438.207275,305.000702 436.766174,306.673798 435.191772,308.304718 
	C435.191772,308.304718 435.326050,308.265656 434.737793,308.323395 
	C434.586792,308.660919 434.435760,308.998444 434.320465,309.178131 
	C434.320465,309.178131 434.358368,309.335449 433.679901,309.312378 
	C433.246277,309.998688 432.812653,310.684998 432.292877,311.357025 
	C432.292877,311.357025 432.333405,311.279663 431.743225,311.326111 
	C431.596649,311.664276 431.450073,312.002411 431.380981,312.236176 
	C431.380981,312.236176 431.443146,312.350372 430.652985,312.354675 
	C429.831818,315.225525 428.608551,318.054840 428.306641,320.979279 
	C428.024750,323.709686 428.931671,326.539642 428.950897,329.328278 
	C429.034821,341.536774 428.986450,353.746155 428.985840,365.955231 
	C428.984802,386.877289 428.963257,407.799408 429.019684,428.721313 
	C429.024414,430.470093 429.553680,432.217438 430.074463,434.797119 
	C436.317993,434.723541 442.561554,434.649963 449.322784,433.802826 
	C449.548096,432.182617 449.968842,430.562561 449.970245,428.942169 
	C450.006653,386.506653 450.001465,344.071075 449.989624,301.635529 
	C449.989319,300.511169 449.835297,299.386871 449.752930,298.262543 
	C449.504333,298.274323 449.255737,298.286102 449.007141,298.297913 
	C449.007141,299.934570 449.007019,301.571198 449.007141,303.207855 
	C449.009521,337.988373 449.032043,372.768921 449.000671,407.549408 
	C448.992584,416.532257 448.815369,425.514984 448.183838,433.623810 
	C448.183838,388.193756 448.183838,342.763702 448.183838,296.275696 
	C446.515045,298.090668 445.662720,299.017700 444.410309,299.983521 
	C444.410309,299.983521 444.013733,300.048798 443.772430,299.714752 
	C443.636505,299.707123 443.500580,299.699493 443.364655,299.691864 
	C443.460175,299.935303 443.555725,300.178772 443.442444,300.468933 
M575.365723,435.009460 
	C575.365723,435.009460 575.782471,435.065674 576.299255,435.776459 
	C582.174988,435.509308 588.050659,435.242157 594.549500,434.417480 
	C594.701050,433.444916 594.984497,432.472412 594.984985,431.499786 
	C595.004211,393.704041 595.009399,355.908234 594.946472,318.112610 
	C594.944214,316.748779 594.237183,315.386169 593.257690,313.755188 
	C588.299011,309.136749 583.340271,304.518341 578.051575,299.394287 
	C577.679749,298.927521 577.307983,298.460754 576.685913,297.438538 
	C576.108826,297.296631 575.531738,297.154755 574.397949,297.624390 
	C574.275696,298.437958 574.046936,299.251495 574.046570,300.065094 
	C574.028320,343.795502 574.021606,387.525940 574.066711,431.256317 
	C574.067993,432.498871 574.640137,433.740814 575.365723,435.009460 
M419.309418,368.542572 
	C419.536591,367.599976 419.959625,366.657867 419.961853,365.714752 
	C420.002228,348.590149 420.007782,331.465363 419.954895,314.340851 
	C419.951569,313.260986 419.408203,312.182739 419.100525,310.385742 
	C422.701263,306.110443 426.053314,301.587067 429.987122,297.644104 
	C432.769165,294.855530 433.968536,292.144379 434.032837,288.106293 
	C434.613342,251.663498 434.087067,215.274063 428.876190,179.129211 
	C427.460175,169.307129 425.105286,159.603333 422.816711,149.931503 
	C421.715240,145.276596 418.553711,142.338043 413.343323,142.995804 
	C405.958893,143.928009 398.396057,144.323532 391.271790,146.272705 
	C371.439331,151.698807 363.819855,170.716736 365.882751,189.966537 
	C368.960388,190.283905 372.087372,190.831818 375.220886,190.872086 
	C379.092804,190.921875 381.198181,192.356812 381.115540,196.464294 
	C381.035034,200.465088 379.011017,202.139999 375.122528,202.041519 
	C371.529846,201.950531 367.933105,202.022125 364.132996,202.022125 
	C363.637054,207.924881 363.199371,213.134155 362.710114,218.957458 
	C365.457031,218.957458 367.408875,218.964462 369.360657,218.956116 
	C375.159637,218.931320 376.911377,220.310211 376.989685,224.924210 
	C377.086945,230.656387 372.951111,229.978943 369.295044,230.026596 
	C367.629730,230.048294 365.914673,229.801559 364.315552,230.130524 
	C363.204865,230.358994 361.514954,231.215668 361.351501,232.042297 
	C360.337952,237.169022 359.683136,242.366669 358.886017,247.696075 
	C362.261169,248.477737 364.966949,249.323441 367.736298,249.692749 
	C371.585785,250.206100 373.671082,251.965790 372.755798,255.984192 
	C371.885254,259.806030 369.440918,261.587097 365.395355,260.858093 
	C362.162262,260.275513 358.910706,259.795288 355.362762,259.220245 
	C354.111603,262.467896 353.086823,265.618561 351.697235,268.599152 
	C350.255676,271.691284 350.921539,273.939209 353.514374,276.008148 
	C356.108765,278.078278 358.681152,280.222290 360.973572,282.611755 
	C363.311279,285.048401 363.860321,287.825470 361.113739,290.527588 
	C358.556885,293.043060 356.024078,293.273468 353.231873,290.808014 
	C350.530304,288.422607 347.675598,286.210602 344.576569,283.666656 
	C341.211945,288.691254 338.104645,293.331573 334.998199,297.970581 
	C337.473816,301.546448 339.971588,304.689697 341.938721,308.135834 
	C343.654236,311.141205 344.445068,314.663727 340.840363,316.953674 
	C337.021027,319.380035 334.242004,317.249268 332.102203,314.011139 
	C330.574799,311.699646 329.123108,309.338074 327.471802,306.737762 
	C317.596588,314.595428 308.150177,322.124603 298.687469,329.633270 
	C296.028412,331.743195 295.887207,333.968903 297.414185,337.028778 
	C301.688354,345.593750 305.628174,354.325500 309.835175,363.868011 
	C310.025848,365.461365 310.216522,367.054749 310.445770,368.970154 
	C346.699860,368.970154 382.618073,368.970154 419.309418,368.542572 
M466.270844,335.648010 
	C465.914032,335.471375 465.557190,335.294708 465.200348,335.118073 
	C465.135925,335.260712 465.015015,335.403351 465.015106,335.545959 
	C465.023071,346.030609 465.005615,356.515656 465.129852,366.999023 
	C465.138885,367.764587 466.179626,368.517944 466.754913,369.537109 
	C466.696838,369.723267 466.571838,369.833282 467.151459,370.384705 
	C468.613525,370.587738 470.075439,370.966278 471.537720,370.967896 
	C501.147430,371.000610 530.757141,370.992798 560.366882,370.973602 
	C561.155884,370.973083 561.944763,370.755432 562.733704,370.639038 
	C560.378845,370.008362 558.074768,370.013855 555.770630,370.007507 
	C525.997253,369.925385 496.223846,369.841614 467.262207,369.104401 
	C499.434235,369.104401 531.606262,369.104401 564.592590,369.104401 
	C563.115967,365.728058 561.957458,363.078949 560.792419,359.667480 
	C558.106689,355.453613 555.148132,351.385559 552.799316,346.991608 
	C549.286804,340.420807 546.203186,333.620819 543.016052,326.116974 
	C539.325867,319.079315 535.635681,312.041656 531.380798,304.398651 
	C530.234985,304.272949 529.089172,304.038300 527.943298,304.037811 
	C509.312256,304.030182 490.681244,304.052185 471.342621,304.013062 
	C470.574982,304.399506 469.807343,304.785980 469.023499,305.608276 
	C469.023499,305.608276 468.852783,306.009644 468.304657,306.523254 
	C465.983521,315.238495 464.967133,324.026306 466.977234,333.748138 
	C466.880707,334.522583 466.784180,335.297028 466.270844,335.648010 
M706.334045,567.685852 
	C706.585693,579.865845 706.818848,592.046387 707.135315,604.224670 
	C707.154114,604.948853 707.841614,605.655701 708.704163,606.993225 
	C709.349365,619.282776 710.129578,631.567139 710.605408,643.863281 
	C711.190979,658.997559 712.085938,674.153015 711.783630,689.278076 
	C711.547974,701.067871 707.052246,711.659912 698.386230,720.124512 
	C697.657776,720.835999 697.098755,721.721008 696.245117,722.797791 
	C726.974670,722.948608 746.897583,701.796143 744.864563,672.301086 
	C742.714661,641.111694 740.940430,609.896057 739.091797,578.686523 
	C738.039673,560.922180 737.143860,543.148499 736.217834,525.376892 
	C734.105225,484.831451 732.032837,444.283905 729.905396,403.739258 
	C729.508850,396.183685 728.931824,388.637604 728.447144,381.225830 
	C718.422791,381.225830 709.003906,381.225830 699.157837,381.225830 
	C699.157837,383.213196 699.091980,384.841003 699.168274,386.462097 
	C699.739136,398.588440 700.384644,410.711365 700.915710,422.839386 
	C701.483643,435.809662 701.944031,448.784607 702.465454,461.756958 
	C703.247131,481.205750 704.041138,500.654022 704.315125,520.723999 
	C704.626160,533.513916 704.933899,546.303894 705.271057,559.093140 
	C705.278198,559.364319 705.624268,559.626526 705.923889,560.661255 
	C705.957336,561.436951 705.990784,562.212708 705.588745,563.314575 
	C706.000916,563.862305 706.413086,564.409973 706.948608,565.658752 
	C706.923889,566.131287 706.899109,566.603821 706.334045,567.685852 
M535.039795,277.630341 
	C535.827454,278.386658 536.601440,279.782745 537.404968,279.799988 
	C545.131531,279.965820 552.863037,279.899323 561.469788,279.899323 
	C545.000549,242.134094 531.998535,204.246475 521.591125,163.924133 
	C518.223389,167.171448 515.688660,169.239395 513.610962,171.694199 
	C508.702576,177.493347 509.170349,184.626358 510.206970,191.290634 
	C514.800842,220.825180 523.400024,249.261185 535.039795,277.630341 
M563.892944,309.051056 
	C562.670410,307.720734 561.566284,305.407623 560.203186,305.243347 
	C556.022705,304.739624 551.742859,305.060120 546.405945,305.060120 
	C552.005981,316.617035 557.151672,327.236328 562.297424,337.855621 
	C562.835388,337.750427 563.373291,337.645203 563.911255,337.540009 
	C563.911255,328.345215 563.911255,319.150452 563.892944,309.051056 
M550.484497,379.993896 
	C554.610352,379.993896 558.736145,379.993896 562.862000,379.993896 
	C562.857178,379.759735 562.852295,379.525604 562.847473,379.291443 
	C528.963196,379.291443 495.078888,379.291443 461.194611,379.291443 
	C461.194061,379.525604 461.193481,379.759735 461.192932,379.993896 
	C490.625275,379.993896 520.057617,379.993896 550.484497,379.993896 
z" data-index="1" style="opacity: 1; visibility: visible;"></path>

<path fill="#FDFCF9" opacity="1.000000" stroke="none" d="
M294.951508,730.388184 
	C299.702942,731.110840 304.483704,732.316223 309.309631,733.300293 
	C311.544006,733.755859 313.866394,733.779968 317.046814,733.988220 
	C446.223633,733.983215 574.502441,734.010925 702.781250,733.906067 
	C707.189148,733.902466 711.596069,732.571289 716.003418,731.858948 
	C728.030151,728.666870 737.244141,721.200623 745.827637,712.722168 
	C741.569214,717.407532 737.512268,722.408020 732.446472,725.976257 
	C724.969543,731.243103 716.493164,733.792297 707.177429,735.510254 
	C696.732239,737.436646 686.552856,736.397583 676.284241,736.904968 
	C666.816589,737.372742 657.306213,737.110229 647.817200,736.984985 
	C627.916931,736.722412 608.019165,736.280762 588.118896,736.018616 
	C558.753967,735.631714 529.388428,735.172119 500.022034,735.071289 
	C484.785889,735.018921 469.548431,735.742920 454.309418,735.977844 
	C444.958435,736.122009 435.602814,735.935913 426.250275,736.016357 
	C391.032806,736.319519 355.806000,737.222168 320.605560,736.601929 
	C312.216248,736.454102 302.647552,736.494263 294.951508,730.388184 
z" data-index="3" style="opacity: 1; visibility: hidden;"></path>

<path fill="#F6F3ED" opacity="1.000000" stroke="none" d="
M711.085327,368.952393 
	C707.312988,363.003479 703.540588,357.054596 699.447144,350.456787 
	C698.708130,341.883118 698.290161,333.958374 698.069580,325.734619 
	C699.856628,324.973297 701.446289,324.510986 703.004883,324.041687 
	C702.973877,324.034760 702.928162,323.990448 702.928162,323.990448 
	C698.965454,326.959717 699.450684,331.733063 699.366821,335.554474 
	C699.132324,346.249115 702.426697,356.175140 709.339783,364.490631 
	C710.637085,366.051056 713.617554,366.807678 715.852905,366.874207 
	C721.267700,367.035248 726.701843,366.588440 732.126709,366.353424 
	C737.609558,366.115875 741.903442,370.343231 742.017822,376.015411 
	C742.315247,390.758392 741.484680,405.647186 743.303772,420.202911 
	C745.243958,435.727509 745.906799,451.179810 746.068970,466.744202 
	C746.153198,474.827118 746.681152,482.905396 747.014404,491.905701 
	C746.975220,494.960907 746.930298,497.096252 746.686768,498.862671 
	C746.270996,494.997559 746.053711,491.501404 745.896851,487.579529 
	C745.678040,485.136169 745.322998,483.125519 745.135315,481.099426 
	C744.728210,476.705566 744.406616,472.303833 744.050049,467.905304 
	C744.050110,467.905304 744.034180,467.986389 744.013550,467.521759 
	C742.934998,448.379547 741.876953,429.701965 740.818909,411.024384 
	C740.613281,406.930939 740.407715,402.837463 740.079468,397.893402 
	C739.964478,390.784729 740.242737,384.509552 739.848389,378.276947 
	C739.688049,375.742493 738.065674,373.300537 737.108582,370.816498 
	C737.108582,370.816498 737.093445,370.907196 736.917725,370.562225 
	C734.821472,369.859253 732.908203,369.243896 730.979248,369.190002 
	C724.350891,369.004761 717.717041,369.015991 711.085327,368.952393 
z" data-index="5" style="opacity: 1; visibility: hidden;"></path>

<path fill="#F9F7F1" opacity="1.000000" stroke="none" d="
M672.084167,261.917816 
	C674.985352,262.277496 678.162231,262.029724 680.703247,263.183014 
	C682.857605,264.160889 685.567993,266.619385 685.787231,268.663483 
	C686.538452,275.667236 692.294678,277.798767 696.708252,281.132782 
	C701.352844,284.641235 706.447083,287.550079 711.292175,290.799469 
	C713.057495,291.983337 714.556274,293.587708 716.376038,294.662842 
	C721.321777,297.584808 724.786133,300.155914 722.345337,307.447052 
	C720.060852,314.271271 711.186646,323.859436 703.350830,323.977875 
	C702.928162,323.990448 702.973877,324.034760 703.147644,323.725464 
	C707.869507,320.199615 713.025818,317.569763 716.824951,313.630920 
	C722.717285,307.521820 722.284851,301.873749 716.088562,297.395813 
	C706.332581,290.345398 696.260620,283.732361 686.081787,276.616821 
	C685.541748,275.753448 685.001343,275.216827 684.979675,274.660034 
	C684.717102,267.900330 680.064087,262.796417 673.128662,265.432770 
	C672.817749,264.021667 672.431213,262.986847 672.055908,261.945129 
	C672.067200,261.938232 672.084167,261.917816 672.084167,261.917816 
z" data-index="7" style="opacity: 1; visibility: hidden;"></path>

<path fill="#FDFCF9" opacity="1.000000" stroke="none" d="
M755.855225,663.996887 
	C755.567200,661.281372 755.279175,658.565918 755.021912,655.445190 
	C756.033203,656.566833 757.813049,658.068542 757.862061,659.624634 
	C758.138611,668.404785 758.842346,677.301575 757.778442,685.959229 
	C756.581055,695.701904 753.693604,705.246338 746.378906,712.959412 
	C746.179199,712.169250 746.081787,711.151733 746.466370,710.371826 
	C748.888123,705.460754 751.416809,700.602478 754.014893,694.993225 
	C754.698120,684.172119 755.276672,674.084473 755.855225,663.996887 
z" data-index="9" style="opacity: 1; visibility: hidden;"></path>

<path fill="#F6F3ED" opacity="1.000000" stroke="none" d="
M281.903625,719.582825 
	C286.288818,722.828186 290.674011,726.073547 295.047516,729.709351 
	C285.683319,727.695984 279.553558,721.405212 274.645264,713.095093 
	C274.553131,712.640137 274.681000,712.465942 275.267883,712.164673 
	C276.098877,712.430420 276.470917,712.823181 276.842957,713.215881 
	C276.842957,713.215881 276.869934,713.105835 276.907806,713.430054 
	C277.919189,714.900513 278.892700,716.046814 279.866211,717.193115 
	C279.866211,717.193115 279.890625,717.084473 279.922607,717.353088 
	C280.213928,717.866211 280.473206,718.110718 280.732483,718.355164 
	C280.732513,718.355164 280.786835,718.186584 280.838959,718.489685 
	C281.228607,719.056091 281.566132,719.319458 281.903625,719.582825 
z" data-index="11" style="opacity: 1; visibility: hidden;"></path>
<path fill="#E0B67F" opacity="1.000000" stroke="none" d="
M290.211945,506.033997 
	C290.134613,503.304871 290.057251,500.575745 290.126068,497.032562 
	C290.506592,495.633514 290.912689,495.059265 290.949982,494.461975 
	C291.709900,482.294434 292.427673,470.124298 293.477844,457.744446 
	C293.905640,452.035736 294.009430,446.537231 294.113220,441.038757 
	C294.078766,440.575928 294.044312,440.113129 294.470154,439.201935 
	C295.277344,438.051239 295.889984,437.364502 295.932190,436.644287 
	C296.999268,418.442596 298.006439,400.237366 299.490967,382.015381 
	C337.020660,381.999817 374.084015,382.094635 411.145721,381.891785 
	C416.059326,381.864899 417.209412,383.369415 417.127991,388.065979 
	C416.845703,404.348755 416.987305,420.639648 417.066559,436.926941 
	C417.074890,438.638672 417.738312,440.347198 418.097809,442.057220 
	C418.097809,442.057220 418.221252,442.262726 418.232178,442.670349 
	C418.573029,443.363190 418.902924,443.648376 419.150146,443.945618 
	C419.067413,443.957703 419.063507,443.790527 419.171021,444.049561 
	C419.575134,444.525299 419.871765,444.742065 420.098877,444.967163 
	C420.029358,444.975464 420.022888,444.835571 420.201111,445.123047 
	C420.787781,445.594452 421.196198,445.778412 421.708496,445.888733 
	C421.812439,445.815063 422.000671,445.986816 422.091003,446.381775 
	C422.683624,447.147980 423.183350,447.839203 423.688538,447.843140 
	C433.246185,447.918396 442.805511,447.981842 452.361176,447.833252 
	C453.519867,447.815277 454.659393,446.563232 455.998901,445.647583 
	C456.827362,444.958588 457.464722,444.505127 458.102051,444.051636 
	C458.102051,444.051636 458.024841,444.025177 458.281616,443.951843 
	C458.684998,443.563721 458.831573,443.248932 459.123108,442.901611 
	C459.268036,442.869049 459.564972,442.861694 459.937134,442.661316 
	C460.537872,440.688995 460.959778,438.917603 460.965057,437.144958 
	C461.014832,420.351990 461.091187,403.557800 460.916870,386.766479 
	C460.878693,383.091095 461.893890,381.904358 465.673645,381.922821 
	C497.762421,382.079681 529.852112,382.042969 561.963501,382.526367 
	C561.992737,401.137512 561.917175,419.287537 562.116211,437.434509 
	C562.140076,439.610718 563.654907,441.770630 564.478638,443.938110 
	C565.187683,444.482758 565.896729,445.027405 567.066162,445.745270 
	C567.526550,445.918488 567.965881,446.055511 567.976318,446.208282 
	C567.986694,446.361053 567.995544,446.667145 568.239075,447.026794 
	C578.821228,447.547180 589.159729,447.724121 599.498901,447.819366 
	C599.997253,447.823944 600.502258,447.109436 601.007568,446.565552 
	C601.010925,446.401245 601.044922,446.074341 601.258423,445.997864 
	C601.471985,445.921387 601.847107,445.666321 601.847107,445.666321 
	C602.725952,444.897491 603.604797,444.128693 605.076416,442.996826 
	C606.108704,440.785950 606.919189,438.940399 606.930237,437.090027 
	C607.040100,418.739136 607.017761,400.387512 607.497803,382.022705 
	C633.959045,382.024506 659.955078,382.039703 685.964600,382.509094 
	C686.657715,401.952911 687.311218,420.943604 688.088562,439.929230 
	C688.130981,440.963715 689.207581,441.955841 689.802734,442.967651 
	C690.210571,449.690186 690.618347,456.412689 691.039673,464.045135 
	C691.727722,486.955078 692.402405,508.955109 692.793579,531.208191 
	C692.668518,535.547546 692.764526,539.637512 693.005798,543.718933 
	C693.188049,546.802368 693.556030,549.874756 694.033569,553.339722 
	C694.489563,554.950989 694.963135,556.171509 694.981873,557.398926 
	C695.081360,563.919373 695.066833,570.441589 694.801514,577.210083 
	C694.667969,579.389404 694.899902,581.319092 694.969666,583.254639 
	C695.662598,602.491882 696.294739,621.731445 697.075256,640.965027 
	C697.130371,642.322693 698.224121,643.638245 698.933960,645.370972 
	C698.992737,646.855835 698.952454,647.943176 698.630981,649.333984 
	C698.558594,657.189697 698.716919,664.743713 698.988037,672.293640 
	C699.416077,684.215698 699.283691,696.046387 694.118408,707.181885 
	C694.118408,707.181885 694.091431,707.064514 693.878540,707.160645 
	C693.492004,707.584595 693.318298,707.912354 693.144653,708.240112 
	C693.144653,708.240112 693.312622,708.145935 693.143188,708.183777 
	C692.844299,708.266541 692.714844,708.311523 692.585327,708.356506 
	C692.717346,708.569336 692.849426,708.782166 692.981445,708.994995 
	C687.991577,716.098145 680.878174,719.845764 671.968750,721.569336 
	C670.119263,721.192322 668.964600,721.018311 667.809875,721.018250 
	C550.487122,721.009583 433.164398,721.010742 315.841644,721.051575 
	C314.251068,721.052124 312.660675,721.563110 311.070190,721.835815 
	C298.091248,720.195496 288.812012,713.447876 283.421204,701.052979 
	C280.183105,686.925720 281.881226,673.327087 282.885071,659.688904 
	C283.289398,654.195618 282.455933,648.611328 282.185852,643.068420 
	C282.118591,639.999573 282.051331,636.930725 282.114258,633.057007 
	C282.881653,625.493347 283.518921,618.734680 284.536011,611.868896 
	C285.266052,611.063965 285.898590,610.376282 285.924194,609.666748 
	C286.318237,598.740906 286.633301,587.812256 286.989746,576.528076 
	C286.983002,575.461243 286.953308,574.750610 287.226013,573.752930 
	C287.387268,569.322144 287.246124,565.178345 287.042725,560.691406 
	C287.040619,559.890198 287.100830,559.432129 287.538452,558.870483 
	C287.963745,554.517944 288.011627,550.268982 288.004456,545.679932 
	C288.009888,544.887146 288.070404,544.434326 288.513062,543.879456 
	C289.234955,543.247131 289.840363,542.733643 289.875214,542.184021 
	C290.596100,530.814880 291.281891,519.443176 291.843048,508.065460 
	C291.875031,507.416687 290.781616,506.712433 290.211945,506.033997 
z" data-index="12" style="opacity: 1;"></path>
<path fill="#8D5325" opacity="1.000000" stroke="none" d="
M309.699951,362.991455 
	C305.628174,354.325500 301.688354,345.593750 297.414185,337.028778 
	C295.887207,333.968903 296.028412,331.743195 298.687469,329.633270 
	C308.150177,322.124603 317.596588,314.595428 327.471802,306.737762 
	C329.123108,309.338074 330.574799,311.699646 332.102203,314.011139 
	C334.242004,317.249268 337.021027,319.380035 340.840363,316.953674 
	C344.445068,314.663727 343.654236,311.141205 341.938721,308.135834 
	C339.971588,304.689697 337.473816,301.546448 334.998199,297.970581 
	C338.104645,293.331573 341.211945,288.691254 344.576569,283.666656 
	C347.675598,286.210602 350.530304,288.422607 353.231873,290.808014 
	C356.024078,293.273468 358.556885,293.043060 361.113739,290.527588 
	C363.860321,287.825470 363.311279,285.048401 360.973572,282.611755 
	C358.681152,280.222290 356.108765,278.078278 353.514374,276.008148 
	C350.921539,273.939209 350.255676,271.691284 351.697235,268.599152 
	C353.086823,265.618561 354.111603,262.467896 355.362762,259.220245 
	C358.910706,259.795288 362.162262,260.275513 365.395355,260.858093 
	C369.440918,261.587097 371.885254,259.806030 372.755798,255.984192 
	C373.671082,251.965790 371.585785,250.206100 367.736298,249.692749 
	C364.966949,249.323441 362.261169,248.477737 358.886017,247.696075 
	C359.683136,242.366669 360.337952,237.169022 361.351501,232.042297 
	C361.514954,231.215668 363.204865,230.358994 364.315552,230.130524 
	C365.914673,229.801559 367.629730,230.048294 369.295044,230.026596 
	C372.951111,229.978943 377.086945,230.656387 376.989685,224.924210 
	C376.911377,220.310211 375.159637,218.931320 369.360657,218.956116 
	C367.408875,218.964462 365.457031,218.957458 362.710114,218.957458 
	C363.199371,213.134155 363.637054,207.924881 364.132996,202.022125 
	C367.933105,202.022125 371.529846,201.950531 375.122528,202.041519 
	C379.011017,202.139999 381.035034,200.465088 381.115540,196.464294 
	C381.198181,192.356812 379.092804,190.921875 375.220886,190.872086 
	C372.087372,190.831818 368.960388,190.283905 365.882751,189.966537 
	C363.819855,170.716736 371.439331,151.698807 391.271790,146.272705 
	C398.396057,144.323532 405.958893,143.928009 413.343323,142.995804 
	C418.553711,142.338043 421.715240,145.276596 422.816711,149.931503 
	C425.105286,159.603333 427.460175,169.307129 428.876190,179.129211 
	C434.087067,215.274063 434.613342,251.663498 434.032837,288.106293 
	C433.968536,292.144379 432.769165,294.855530 429.987122,297.644104 
	C426.053314,301.587067 422.701263,306.110443 419.073975,311.157471 
	C418.926300,313.314178 418.805145,314.699188 418.324432,316.209167 
	C417.658630,318.056030 417.096436,319.776489 417.086670,321.500061 
	C417.009460,335.137177 416.885742,348.777557 417.123505,362.410858 
	C417.197021,366.626465 416.264221,368.159882 411.668549,368.130585 
	C379.738037,367.926880 347.805603,368.028625 315.873779,368.014038 
	C314.418762,368.013367 312.963806,367.835846 311.850800,367.763092 
	C311.001831,365.879639 310.350891,364.435547 309.699951,362.991455 
z" data-index="13" style="opacity: 1;"></path>
<path fill="#776634" opacity="1.000000" stroke="none" d="
M616.727783,209.107666 
	C619.208923,212.173553 621.371033,215.392776 623.903564,219.057037 
	C624.528259,219.714966 624.810852,219.878876 625.121826,219.993820 
	C625.121826,219.993820 625.018311,219.977997 625.038574,220.344055 
	C624.212524,223.513397 623.632080,226.433151 622.464844,229.095718 
	C620.011475,234.692230 617.165649,240.115509 614.644653,245.684021 
	C612.957581,249.410416 614.654480,252.093628 617.885681,253.960907 
	C621.266785,255.914780 623.535645,254.166763 625.319763,251.407562 
	C627.023621,248.772598 628.587646,246.047638 630.262573,243.393448 
	C632.681702,239.560165 635.145447,235.755112 637.590210,231.938034 
	C638.939819,232.825806 640.289368,233.713547 641.841187,234.276093 
	C644.639404,237.041519 647.235535,240.132156 649.934753,243.939896 
	C647.165527,251.122696 644.267029,257.576935 641.435791,264.060577 
	C640.516907,266.164948 639.496826,268.285858 639.014587,270.506012 
	C638.281921,273.878998 639.691833,276.926666 643.096863,277.233704 
	C645.101929,277.414520 648.141418,275.763947 649.296814,274.005035 
	C653.560303,267.514496 657.232422,260.635468 661.126831,253.902496 
	C664.581726,256.777649 668.036560,259.652802 671.768005,262.239990 
	C672.431213,262.986847 672.817749,264.021667 673.166931,265.844818 
	C672.466919,269.003479 672.122681,271.525604 671.079163,273.714386 
	C668.445312,279.239044 665.478271,284.604218 662.680176,290.051453 
	C660.588928,294.122467 661.460632,298.244049 664.971619,299.867462 
	C669.020935,301.739807 671.550598,299.472412 673.439392,296.169556 
	C676.395386,291.000458 679.174744,285.725922 682.277893,280.648163 
	C683.195374,279.146942 684.950867,278.157898 686.322388,276.934174 
	C696.260620,283.732361 706.332581,290.345398 716.088562,297.395813 
	C722.284851,301.873749 722.717285,307.521820 716.824951,313.630920 
	C713.025818,317.569763 707.869507,320.199615 703.178711,323.732391 
	C701.446289,324.510986 699.856628,324.973297 697.765015,325.727966 
	C696.862122,326.081787 696.461304,326.143219 696.060425,326.204651 
	C688.505554,325.972595 688.503784,325.972168 686.778870,333.190704 
	C684.295654,343.582672 687.029480,353.076630 691.812378,362.203796 
	C692.730103,363.955139 693.776367,365.639130 694.423889,367.675995 
	C669.974487,368.019623 645.864563,368.041412 621.754578,368.063202 
	C613.650330,353.275574 603.615173,338.957153 605.192871,321.028809 
	C606.010864,311.733521 602.763916,305.267761 595.636169,300.327179 
	C577.178162,287.532898 567.780090,268.674469 561.023621,248.267548 
	C551.638489,219.921265 542.669373,191.433609 533.894592,162.892014 
	C532.199707,157.379120 529.960510,153.133942 524.071167,150.973236 
	C540.655273,141.945953 570.314514,140.435593 584.516663,163.494537 
	C590.408813,173.061142 596.665771,182.403015 602.330627,192.461609 
	C598.029419,198.834885 593.630798,204.317551 590.411621,210.422211 
	C586.364990,218.096024 587.935364,226.798874 593.865112,231.168182 
	C595.634399,232.471878 599.243469,232.662842 601.349487,231.783173 
	C604.125122,230.623764 603.634216,227.783401 602.632263,224.893753 
	C601.606262,221.934784 600.458496,217.862167 601.703674,215.521667 
	C604.016907,211.173279 608.030823,207.729630 611.336670,203.909332 
	C613.027344,205.693222 614.718018,207.477112 616.727783,209.107666 
z" data-index="14" style="opacity: 1; visibility: visible;"></path>
<path fill="#AE7334" opacity="1.000000" stroke="none" d="
M706.024292,562.988403 
	C705.990784,562.212708 705.957336,561.436951 705.910950,559.818604 
	C705.541992,546.018188 705.185974,533.060364 704.829956,520.102539 
	C704.041138,500.654022 703.247131,481.205750 702.465454,461.756958 
	C701.944031,448.784607 701.483643,435.809662 700.915710,422.839386 
	C700.384644,410.711365 699.739136,398.588440 699.168274,386.462097 
	C699.091980,384.841003 699.157837,383.213196 699.157837,381.225830 
	C709.003906,381.225830 718.422791,381.225830 728.447144,381.225830 
	C728.931824,388.637604 729.508850,396.183685 729.905396,403.739258 
	C732.032837,444.283905 734.105225,484.831451 736.217834,525.376892 
	C737.143860,543.148499 738.039673,560.922180 739.091797,578.686523 
	C740.940430,609.896057 742.714661,641.111694 744.864563,672.301086 
	C746.897583,701.796143 726.974670,722.948608 696.245117,722.797791 
	C697.098755,721.721008 697.657776,720.835999 698.386230,720.124512 
	C707.052246,711.659912 711.547974,701.067871 711.783630,689.278076 
	C712.085938,674.153015 711.190979,658.997559 710.605408,643.863281 
	C710.129578,631.567139 709.349365,619.282776 708.563843,606.177673 
	C707.907104,592.600220 707.390747,579.838257 706.874390,567.076355 
	C706.899109,566.603821 706.923889,566.131287 706.913696,565.017456 
	C706.593933,563.913513 706.309082,563.450989 706.024292,562.988403 
z" data-index="15" style="opacity: 1;"></path>

<path fill="#776634" opacity="1.000000" stroke="none" d="
M534.922974,277.247589 
	C523.400024,249.261185 514.800842,220.825180 510.206970,191.290634 
	C509.170349,184.626358 508.702576,177.493347 513.610962,171.694199 
	C515.688660,169.239395 518.223389,167.171448 521.591125,163.924133 
	C531.998535,204.246475 545.000549,242.134094 561.469788,279.899323 
	C552.863037,279.899323 545.131531,279.965820 537.404968,279.799988 
	C536.601440,279.782745 535.827454,278.386658 534.922974,277.247589 
z" data-index="17" style="opacity: 1;"></path>
<path fill="#E0B67F" opacity="1.000000" stroke="none" d="
M578.381592,299.899902 
	C583.340271,304.518341 588.299011,309.136749 593.621277,314.352417 
	C593.965393,354.958099 593.945923,394.966553 593.926392,434.975037 
	C588.050659,435.242157 582.174988,435.509308 576.095825,435.151917 
	C575.935730,434.349243 575.979187,434.171082 576.339478,433.718628 
	C576.768311,431.464935 576.977234,429.485626 576.978088,427.506256 
	C576.995544,386.950409 576.969604,346.394501 577.046936,305.838806 
	C577.050720,303.858337 577.916992,301.879486 578.381592,299.899902 
z" data-index="18" style="opacity: 1;"></path>
<path fill="#E0B67F" opacity="1.000000" stroke="none" d="
M444.013733,300.048798 
	C444.013733,300.048798 444.410309,299.983521 445.015076,300.066101 
	C446.071686,302.117676 446.913696,304.085907 446.917664,306.055817 
	C446.996277,345.178741 446.978516,384.301849 446.979065,423.424927 
	C446.979187,433.002258 446.977203,433.002289 437.599182,432.996765 
	C431.029510,432.992889 431.025879,432.992859 431.019806,426.616882 
	C430.983887,388.993347 430.949799,351.369812 430.988678,313.499725 
	C431.189209,312.952240 431.316162,312.651306 431.443146,312.350372 
	C431.443146,312.350372 431.380981,312.236176 431.625549,312.248718 
	C432.024536,311.934082 432.178986,311.606873 432.333435,311.279663 
	C432.333405,311.279663 432.292877,311.357025 432.624817,311.287659 
	C433.423950,310.590698 433.891144,309.963074 434.358337,309.335449 
	C434.358368,309.335449 434.320465,309.178131 434.586304,309.212708 
	C435.010101,308.920074 435.168091,308.592865 435.326050,308.265656 
	C435.326050,308.265656 435.191772,308.304718 435.574280,308.245392 
	C437.417999,306.571594 438.879211,304.957123 440.340393,303.342651 
	C440.340393,303.342651 440.352081,303.086884 440.615234,303.177979 
	C441.029327,302.940765 441.180237,302.612488 441.331116,302.284210 
	C441.331116,302.284210 441.095459,302.207428 441.486542,302.239014 
	C442.028687,301.941437 442.179749,301.612335 442.330811,301.283234 
	C442.330841,301.283234 442.101746,301.216888 442.490112,301.245117 
	C443.029480,300.944214 443.180511,300.615082 443.331543,300.285950 
	C443.331543,300.285950 443.442444,300.468933 443.674622,300.392639 
	C443.906769,300.316376 444.013733,300.048798 444.013733,300.048798 
z" data-index="19" style="opacity: 1;"></path>
<path fill="#170201" opacity="1.000000" stroke="none" d="
M715.729309,731.598083 
	C711.596069,732.571289 707.189148,733.902466 702.781250,733.906067 
	C574.502441,734.010925 446.223633,733.983215 317.480530,733.908691 
	C319.106201,733.558777 321.196106,733.030945 323.286194,733.030273 
	C448.273834,732.989258 573.261475,733.013367 698.249084,732.919617 
	C703.984863,732.915344 709.719849,731.888062 715.729309,731.598083 
z" data-index="20" style="opacity: 1;"></path>
<path fill="#FEE2A4" opacity="1.000000" stroke="none" d="
M311.376770,721.900635 
	C312.660675,721.563110 314.251068,721.052124 315.841644,721.051575 
	C433.164398,721.010742 550.487122,721.009583 667.809875,721.018250 
	C668.964600,721.018311 670.119263,721.192322 671.590393,721.540588 
	C671.202942,721.888184 670.499084,721.980408 668.976074,722.038940 
	C590.545898,722.001526 512.934937,721.981873 435.323944,722.000488 
	C394.524231,722.010254 353.724548,722.087036 312.924835,722.133545 
	C312.511017,722.077454 312.097168,722.021423 311.376770,721.900635 
z" data-index="21"></path>
<path fill="#170201" opacity="1.000000" stroke="none" d="
M668.896118,722.907410 
	C667.921814,723.267578 666.947571,723.942871 665.973145,723.943237 
	C549.632751,723.989441 433.292419,723.987122 316.952057,723.965149 
	C315.814331,723.964966 314.676666,723.670410 313.745209,723.215576 
	C356.444641,722.942566 398.937836,722.991638 441.431030,722.986511 
	C517.252747,722.977417 593.074402,722.935608 668.896118,722.907410 
z" data-index="22"></path>
<path fill="#96703F" opacity="1.000000" stroke="none" d="
M668.946960,722.723877 
	C593.074402,722.935608 517.252747,722.977417 441.431030,722.986511 
	C398.937836,722.991638 356.444641,722.942566 313.487427,722.882935 
	C313.023407,722.848022 312.997406,722.487549 312.961121,722.310547 
	C353.724548,722.087036 394.524231,722.010254 435.323944,722.000488 
	C512.934937,721.981873 590.545898,722.001526 668.623962,722.088135 
	C669.091064,722.171021 668.997803,722.540283 668.946960,722.723877 
z" data-index="23"></path>
<path fill="#776634" opacity="1.000000" stroke="none" d="
M563.902100,309.503357 
	C563.911255,319.150452 563.911255,328.345215 563.911255,337.540009 
	C563.373291,337.645203 562.835388,337.750427 562.297424,337.855621 
	C557.151672,327.236328 552.005981,316.617035 546.405945,305.060120 
	C551.742859,305.060120 556.022705,304.739624 560.203186,305.243347 
	C561.566284,305.407623 562.670410,307.720734 563.902100,309.503357 
z" data-index="24" style="opacity: 1;"></path>
<path fill="#F4CE92" opacity="1.000000" stroke="none" d="
M430.915131,313.746277 
	C430.949799,351.369812 430.983887,388.993347 431.019806,426.616882 
	C431.025879,432.992859 431.029510,432.992889 437.599182,432.996765 
	C446.977203,433.002289 446.979187,433.002258 446.979065,423.424927 
	C446.978516,384.301849 446.996277,345.178741 446.917664,306.055817 
	C446.913696,304.085907 446.071686,302.117676 445.215149,300.046692 
	C445.662720,299.017700 446.515045,298.090668 448.183838,296.275696 
	C448.183838,342.763702 448.183838,388.193756 448.473541,434.074036 
	C448.763245,434.524292 448.805084,434.576416 448.805084,434.576416 
	C442.561554,434.649963 436.317993,434.723541 430.014099,433.917603 
	C429.959351,395.145477 429.951569,357.252838 430.010773,319.360352 
	C430.013672,317.488525 430.600311,315.617615 430.915131,313.746277 
z" data-index="25" style="opacity: 1;"></path>
<path fill="#230C03" opacity="1.000000" stroke="none" d="
M273.174103,595.996094 
	C273.135925,595.824890 273.097717,595.653625 273.379150,594.913452 
	C273.759216,592.403809 273.819641,590.463257 273.880066,588.522644 
	C273.935577,585.302673 273.991058,582.082703 274.372375,578.108032 
	C274.762695,575.441406 274.827179,573.529419 274.891663,571.617432 
	C275.915771,552.604980 276.907501,533.590637 277.972534,514.580505 
	C279.197052,492.724152 280.528046,470.873779 281.733337,449.016418 
	C282.564789,433.937836 283.191467,418.847839 284.043518,403.770508 
	C284.576477,394.339661 285.326294,384.920410 286.070587,375.503174 
	C286.157654,374.401550 286.829651,373.346100 287.570679,372.057648 
	C286.590454,394.483917 285.278442,417.122253 283.945862,439.759399 
	C283.313599,450.499786 282.666046,461.239441 281.983368,471.976715 
	C280.691620,492.292847 279.328949,512.604553 278.075195,532.922974 
	C277.310333,545.319214 276.695679,557.724731 276.009735,570.125793 
	C275.543457,578.555725 275.070435,586.985291 274.106293,595.713135 
	C273.612152,596.011292 273.174103,595.996094 273.174103,595.996094 
z" data-index="26" style="opacity: 1;"></path>

<path fill="#AE7334" opacity="1.000000" stroke="none" d="
M309.767578,363.429749 
	C310.350891,364.435547 311.001831,365.879639 311.850800,367.763092 
	C312.963806,367.835846 314.418762,368.013367 315.873779,368.014038 
	C347.805603,368.028625 379.738037,367.926880 411.668549,368.130585 
	C416.264221,368.159882 417.197021,366.626465 417.123505,362.410858 
	C416.885742,348.777557 417.009460,335.137177 417.086670,321.500061 
	C417.096436,319.776489 417.658630,318.056030 418.381805,316.668518 
	C418.693176,333.667877 418.587616,350.332825 418.393005,367.111084 
	C418.196442,367.520386 418.258301,367.780518 418.529724,368.244720 
	C418.569946,368.484680 418.536285,368.970154 418.536285,368.970154 
	C382.618073,368.970154 346.699860,368.970154 310.445770,368.970154 
	C310.216522,367.054749 310.025848,365.461365 309.767578,363.429749 
z" data-index="28"></path>
<path fill="#FEE2A4" opacity="1.000000" stroke="none" d="
M418.154785,441.587463 
	C417.738312,440.347198 417.074890,438.638672 417.066559,436.926941 
	C416.987305,420.639648 416.845703,404.348755 417.127991,388.065979 
	C417.209412,383.369415 416.059326,381.864899 411.145721,381.891785 
	C374.084015,382.094635 337.020660,381.999817 299.276245,381.914490 
	C298.316132,381.654572 298.124695,381.410034 298.020386,381.097351 
	C311.705322,381.053864 325.390228,381.010376 339.933044,380.947845 
	C341.860168,380.884399 342.929443,380.839996 344.367950,380.880402 
	C345.488098,380.907410 346.239044,380.849579 347.389099,380.858582 
	C348.862915,380.880981 349.937531,380.836517 351.012177,380.792084 
	C373.277252,380.792084 395.542358,380.792084 418.211731,380.792084 
	C418.211731,401.276764 418.211731,421.197266 418.154785,441.587463 
z" data-index="29" style="opacity: 1;"></path>
<path fill="#FEE2A4" opacity="1.000000" stroke="none" d="
M561.941528,382.064331 
	C529.852112,382.042969 497.762421,382.079681 465.673645,381.922821 
	C461.893890,381.904358 460.878693,383.091095 460.916870,386.766479 
	C461.091187,403.557800 461.014832,420.351990 460.965057,437.144958 
	C460.959778,438.917603 460.537872,440.688995 460.080994,442.221741 
	C459.829742,422.985168 459.806763,403.987885 459.849274,384.596069 
	C459.921112,383.137360 459.927460,382.073212 459.933807,381.009033 
	C494.287048,380.995880 528.640259,380.982758 563.475647,381.236755 
	C563.957764,381.503937 563.808838,381.947876 563.611755,381.956238 
	C563.414673,381.964630 563.024231,382.020386 562.753418,382.028564 
	C562.302307,382.045898 562.121887,382.055115 561.941528,382.064331 
z" data-index="30" style="opacity: 1;"></path>
<path fill="#2E1504" opacity="1.000000" stroke="none" d="
M748.015869,541.341064 
	C748.663879,546.185852 749.566528,551.491943 749.874756,556.832336 
	C751.388000,583.046875 752.737610,609.270813 754.160217,635.490662 
	C754.389221,639.711731 754.694824,643.928711 754.898438,648.558472 
	C754.224487,647.867432 753.170349,646.799316 753.083801,645.657837 
	C752.594971,639.212646 752.306335,632.751343 752.009277,626.292786 
	C751.308289,611.048645 750.670776,595.801514 749.950745,580.558289 
	C749.340637,567.642944 748.650879,554.731384 748.015869,541.341064 
z" data-index="31" style="opacity: 1;"></path>
<path fill="#2E1504" opacity="1.000000" stroke="none" d="
M273.095703,596.446716 
	C273.174103,595.996094 273.612152,596.011292 273.831360,596.026978 
	C273.356476,612.903625 272.728516,629.767639 271.945374,646.624451 
	C271.408569,658.179077 270.293579,669.718750 270.134308,681.274719 
	C270.037201,688.319336 271.263428,695.382202 271.797272,702.871704 
	C270.471527,696.876831 268.138428,690.430054 268.236969,684.020691 
	C268.470764,668.810486 269.862335,653.618347 270.775024,638.418274 
	C271.150909,632.158325 271.518005,625.897644 271.854279,619.635498 
	C272.261230,612.057129 272.631256,604.476807 273.095703,596.446716 
z" data-index="32" style="opacity: 1;"></path>
<path fill="#8D5325" opacity="1.000000" stroke="none" d="
M576.022583,433.992950 
	C575.979187,434.171082 575.935730,434.349243 575.837402,434.796509 
	C575.782471,435.065674 575.365723,435.009460 575.152588,434.529480 
	C574.944519,388.370605 574.949585,342.691742 574.954651,297.012848 
	C575.531738,297.154755 576.108826,297.296631 576.419189,297.907104 
	C576.092407,299.034454 575.979614,299.693237 575.979736,300.352020 
	C575.988220,344.898987 576.005798,389.445984 576.022583,433.992950 
z" data-index="33" style="opacity: 1;"></path>
<path fill="#170201" opacity="1.000000" stroke="none" d="
M574.676270,297.318604 
	C574.949585,342.691742 574.944519,388.370605 574.942749,434.516296 
	C574.640137,433.740814 574.067993,432.498871 574.066711,431.256317 
	C574.021606,387.525940 574.028320,343.795502 574.046570,300.065094 
	C574.046936,299.251495 574.275696,298.437958 574.676270,297.318604 
z" data-index="34"></path>
<path fill="#2E1504" opacity="1.000000" stroke="none" d="
M449.063934,434.189636 
	C448.805084,434.576416 448.763245,434.524292 448.739563,434.511047 
	C448.815369,425.514984 448.992584,416.532257 449.000671,407.549408 
	C449.032043,372.768921 449.009521,337.988373 449.007141,303.207855 
	C449.007019,301.571198 449.007141,299.934570 449.007141,298.297913 
	C449.255737,298.286102 449.504333,298.274323 449.752930,298.262543 
	C449.835297,299.386871 449.989319,300.511169 449.989624,301.635529 
	C450.001465,344.071075 450.006653,386.506653 449.970245,428.942169 
	C449.968842,430.562561 449.548096,432.182617 449.063934,434.189636 
z" data-index="35" style="opacity: 1;"></path>
<path fill="#FEE2A4" opacity="1.000000" stroke="none" d="
M576.339478,433.718628 
	C576.005798,389.445984 575.988220,344.898987 575.979736,300.352020 
	C575.979614,299.693237 576.092407,299.034454 576.544312,298.184814 
	C577.307983,298.460754 577.679749,298.927521 578.216553,299.647095 
	C577.916992,301.879486 577.050720,303.858337 577.046936,305.838806 
	C576.969604,346.394501 576.995544,386.950409 576.978088,427.506256 
	C576.977234,429.485626 576.768311,431.464935 576.339478,433.718628 
z" data-index="36"></path>
<path fill="#2E1504" opacity="1.000000" stroke="none" d="
M430.988678,313.499725 
	C430.600311,315.617615 430.013672,317.488525 430.010773,319.360352 
	C429.951569,357.252838 429.959351,395.145477 429.896484,433.501770 
	C429.553680,432.217438 429.024414,430.470093 429.019684,428.721313 
	C428.963257,407.799408 428.984802,386.877289 428.985840,365.955231 
	C428.986450,353.746155 429.034821,341.536774 428.950897,329.328278 
	C428.931671,326.539642 428.024750,323.709686 428.306641,320.979279 
	C428.608551,318.054840 429.831818,315.225525 431.048065,312.352539 
	C431.316162,312.651306 431.189209,312.952240 430.988678,313.499725 
z" data-index="37"></path>
<path fill="#2E1504" opacity="1.000000" stroke="none" d="
M343.998718,380.795563 
	C342.929443,380.839996 341.860168,380.884399 340.394531,380.862000 
	C338.233154,380.528931 336.469299,380.041870 334.702820,380.031982 
	C322.573273,379.964233 310.443115,379.996399 298.314728,379.328979 
	C337.850830,379.328979 377.386932,379.328979 416.923035,379.328979 
	C416.928528,379.551849 416.933990,379.774689 416.939453,379.997559 
	C413.823792,379.997559 410.708069,379.983795 407.592468,379.999847 
	C388.952759,380.095795 370.313049,380.198608 351.342773,380.545593 
	C349.937531,380.836517 348.862915,380.880981 347.187317,380.650879 
	C345.723846,380.516052 344.861267,380.655792 343.998718,380.795563 
z" data-index="38" style="opacity: 1;"></path>
<path fill="#2E1504" opacity="1.000000" stroke="none" d="
M698.912231,649.030518 
	C698.952454,647.943176 698.992737,646.855835 698.967346,644.927002 
	C698.313843,630.062683 697.726074,616.039795 697.138306,602.016907 
	C697.758545,603.352722 698.869385,604.669373 698.922363,606.027405 
	C699.395386,618.144409 699.539917,630.274780 700.067444,642.388794 
	C700.499695,652.315186 701.322510,662.224670 701.667969,672.576538 
	C700.974182,673.011353 700.584595,673.011353 700.128662,672.572449 
	C699.679077,664.432556 699.295654,656.731567 698.912231,649.030518 
z" data-index="39" style="opacity: 1;"></path>
<path fill="#F4CE92" opacity="1.000000" stroke="none" d="
M561.963501,382.526367 
	C562.121887,382.055115 562.302307,382.045898 562.822632,382.230560 
	C563.295227,382.691742 563.498047,382.885712 563.838989,383.470093 
	C563.910889,386.413879 563.905151,388.893951 563.920288,391.373932 
	C564.025208,408.555939 564.134399,425.737976 564.242188,442.919983 
	C564.247864,443.097229 564.253601,443.274506 564.369019,443.694946 
	C563.654907,441.770630 562.140076,439.610718 562.116211,437.434509 
	C561.917175,419.287537 561.992737,401.137512 561.963501,382.526367 
z" data-index="40"></path>
<path fill="#F4CE92" opacity="1.000000" stroke="none" d="
M607.032715,382.036072 
	C607.017761,400.387512 607.040100,418.739136 606.930237,437.090027 
	C606.919189,438.940399 606.108704,440.785950 605.313110,442.813202 
	C604.961304,442.815826 604.965454,442.639038 604.981934,441.744843 
	C605.054810,421.345245 605.115295,401.663055 605.485229,381.985657 
	C606.207336,382.005646 606.620056,382.020844 607.032715,382.036072 
z" data-index="41" style="opacity: 1;"></path>
<path fill="#170201" opacity="1.000000" stroke="none" d="
M594.237915,434.696228 
	C593.945923,394.966553 593.965393,354.958099 593.921753,314.486328 
	C594.237183,315.386169 594.944214,316.748779 594.946472,318.112610 
	C595.009399,355.908234 595.004211,393.704041 594.984985,431.499786 
	C594.984497,432.472412 594.701050,433.444916 594.237915,434.696228 
z" data-index="42"></path>
<path fill="#2E1504" opacity="1.000000" stroke="none" d="
M693.077026,530.955139 
	C692.402405,508.955109 691.727722,486.955078 691.116699,464.494385 
	C691.784424,465.374939 692.869324,466.698883 692.918091,468.059967 
	C693.386719,481.149261 693.699280,494.244415 694.017883,507.338837 
	C694.206116,515.077759 694.324951,522.818298 693.960022,530.796814 
	C693.445068,531.035522 693.077026,530.955139 693.077026,530.955139 
z" data-index="43"></path>
<path fill="#F4CE92" opacity="1.000000" stroke="none" d="
M689.862061,442.504486 
	C689.207581,441.955841 688.130981,440.963715 688.088562,439.929230 
	C687.311218,420.943604 686.657715,401.952911 686.222168,382.497925 
	C686.637634,382.023590 686.809021,382.014557 687.102173,382.091980 
	C687.223938,382.178436 687.492310,382.309692 687.492310,382.309692 
	C688.302002,402.220245 689.111633,422.130768 689.862061,442.504486 
z" data-index="44"></path>
<path fill="#230C03" opacity="1.000000" stroke="none" d="
M457.671509,444.037659 
	C457.464722,444.505127 456.827362,444.958588 455.543121,445.665833 
	C443.931030,445.942017 432.965851,445.964417 422.000671,445.986816 
	C422.000671,445.986816 421.812439,445.815063 421.524963,445.604614 
	C420.832611,445.207977 420.427765,445.021759 420.022888,444.835571 
	C420.022888,444.835571 420.029358,444.975464 419.990601,444.706177 
	C419.655701,444.221466 419.359619,444.005981 419.063507,443.790527 
	C419.063507,443.790527 419.067413,443.957703 419.095978,443.693604 
	C419.091614,443.261383 419.058716,443.093231 419.025787,442.925079 
	C419.025787,422.644257 419.025787,402.363403 419.025787,382.082581 
	C419.350586,382.080719 419.675385,382.078857 420.000183,382.076996 
	C420.000183,390.514557 420.000000,398.952148 420.000244,407.389709 
	C420.000549,418.048004 420.101776,428.707764 419.946350,439.363800 
	C419.893097,443.015533 421.713654,444.899567 424.899750,444.870880 
	C435.681854,444.773682 446.460815,444.333038 457.671509,444.037659 
z" data-index="45" style="opacity: 1;"></path>
<path fill="#2E1504" opacity="1.000000" stroke="none" d="
M549.987244,379.993896 
	C520.057617,379.993896 490.625275,379.993896 461.192932,379.993896 
	C461.193481,379.759735 461.194061,379.525604 461.194611,379.291443 
	C495.078888,379.291443 528.963196,379.291443 562.847473,379.291443 
	C562.852295,379.525604 562.857178,379.759735 562.862000,379.993896 
	C558.736145,379.993896 554.610352,379.993896 549.987244,379.993896 
z" data-index="46" style="opacity: 1;"></path>
<path fill="#F4CE92" opacity="1.000000" stroke="none" d="
M697.055786,601.563110 
	C697.726074,616.039795 698.313843,630.062683 698.868286,644.529480 
	C698.224121,643.638245 697.130371,642.322693 697.075256,640.965027 
	C696.294739,621.731445 695.662598,602.491882 694.969666,583.254639 
	C694.899902,581.319092 694.667969,579.389404 695.107666,577.364868 
	C695.852051,578.168030 695.999878,579.063354 696.147766,579.958618 
	C696.114380,580.422791 696.080933,580.886963 696.073853,582.100220 
	C696.197449,584.213196 696.294678,585.577026 696.391907,586.940918 
	C696.585754,591.663696 696.779602,596.386536 697.055786,601.563110 
z" data-index="47"></path>
<path fill="#230C03" opacity="1.000000" stroke="none" d="
M466.765717,370.125946 
	C466.379974,369.867188 466.433411,369.825775 466.441925,369.791992 
	C496.223846,369.841614 525.997253,369.925385 555.770630,370.007507 
	C558.074768,370.013855 560.378845,370.008362 562.733704,370.639038 
	C561.944763,370.755432 561.155884,370.973083 560.366882,370.973602 
	C530.757141,370.992798 501.147430,371.000610 471.537720,370.967896 
	C470.075439,370.966278 468.613525,370.587738 466.765717,370.125946 
z" data-index="48" style="opacity: 1;"></path>
<path fill="#F4CE92" opacity="1.000000" stroke="none" d="
M297.629639,381.269470 
	C298.124695,381.410034 298.316132,381.654572 298.809387,381.931854 
	C298.006439,400.237366 296.999268,418.442596 295.932190,436.644287 
	C295.889984,437.364502 295.277344,438.051239 294.552917,438.862000 
	C294.934235,424.596802 295.690979,410.223083 296.453217,395.849640 
	C296.707916,391.046570 296.976593,386.244263 297.629639,381.269470 
z" data-index="49" style="opacity: 1;"></path>
<path fill="#F4CE92" opacity="1.000000" stroke="none" d="
M282.116394,643.515137 
	C282.455933,648.611328 283.289398,654.195618 282.885071,659.688904 
	C281.881226,673.327087 280.183105,686.925720 283.391174,700.706177 
	C278.463654,691.747131 280.022583,681.923584 280.406555,672.257446 
	C280.781494,662.818787 281.486755,653.393188 282.116394,643.515137 
z" data-index="50"></path>
<path fill="#2E1504" opacity="1.000000" stroke="none" d="
M696.413086,579.644043 
	C695.999878,579.063354 695.852051,578.168030 695.397949,577.117981 
	C695.066833,570.441589 695.081360,563.919373 694.981873,557.398926 
	C694.963135,556.171509 694.489563,554.950989 694.084229,552.876465 
	C694.004211,545.686646 694.065796,539.347717 694.127319,533.008728 
	C694.739990,534.320374 695.854309,535.619202 695.888245,536.945679 
	C696.250183,551.071045 696.440735,565.200867 696.413086,579.644043 
z" data-index="51" style="opacity: 1;"></path>
<path fill="#2E1504" opacity="1.000000" stroke="none" d="
M351.557220,213.868195 
	C352.812622,195.622330 350.845367,176.805344 358.476929,158.952881 
	C358.665680,159.858429 358.811249,161.078598 358.438110,162.111359 
	C354.842712,172.062119 354.276489,182.406876 353.922394,192.852371 
	C353.685669,199.835297 352.626068,206.790329 351.557220,213.868195 
z" data-index="52" style="opacity: 1;"></path>
<path fill="#96703F" opacity="1.000000" stroke="none" d="
M687.000732,379.975769 
	C687.000732,379.975769 687.141968,380.340790 687.149902,380.595367 
	C687.157776,380.849945 686.982971,381.019073 686.515869,381.001831 
	C659.080811,380.996918 632.112793,381.009216 605.068115,381.140289 
	C604.991394,381.259064 604.718689,381.184204 604.718689,381.184204 
	C604.786438,381.021210 604.854248,380.858185 605.425781,380.373108 
	C632.953186,380.025970 659.976990,380.000885 687.000732,379.975769 
z" data-index="53"></path>
<path fill="#170201" opacity="1.000000" stroke="none" d="
M686.705017,379.681519 
	C659.976990,380.000885 632.953186,380.025970 605.462952,380.110901 
	C606.193420,379.786438 607.389648,379.069550 608.587463,379.066895 
	C634.046692,379.009918 659.506226,379.031281 684.965637,379.055267 
	C685.446960,379.055695 685.928101,379.271790 686.705017,379.681519 
z" data-index="54"></path>
<path fill="#2E1504" opacity="1.000000" stroke="none" d="
M286.923615,574.039917 
	C286.953308,574.750610 286.983002,575.461243 286.640198,576.689758 
	C285.785583,579.133484 285.303528,581.059448 284.821472,582.985352 
	C284.848755,580.114624 284.787323,577.239685 284.921326,574.373962 
	C285.221832,567.946594 285.656372,561.525513 285.968048,555.098633 
	C286.351837,547.183411 286.642212,539.263611 287.051300,531.349792 
	C287.088257,530.634888 287.697174,529.949524 288.453796,529.579346 
	C288.621704,534.599304 288.376282,539.290405 288.130890,543.981506 
	C288.070404,544.434326 288.009888,544.887146 287.921753,546.099487 
	C287.649750,550.897400 287.405396,554.935669 287.161041,558.973999 
	C287.100830,559.432129 287.040619,559.890198 286.969482,561.121338 
	C286.946930,565.942810 286.935272,569.991394 286.923615,574.039917 
z" data-index="55"></path>
<path fill="#2E1504" opacity="1.000000" stroke="none" d="
M740.571289,411.324585 
	C741.876953,429.701965 742.934998,448.379547 744.054810,467.524963 
	C743.745239,467.125916 743.088562,466.272583 743.046753,465.390076 
	C742.632874,456.652466 742.445557,447.902802 741.942810,439.171021 
	C741.489075,431.289490 740.697449,423.427795 740.117065,415.552765 
	C740.021423,414.255554 740.246704,412.934723 740.571289,411.324585 
z" data-index="56" style="opacity: 1;"></path>
<path fill="#96703F" opacity="1.000000" stroke="none" d="
M622.077393,368.361542 
	C645.864563,368.041412 669.974487,368.019623 694.555664,367.998383 
	C693.999878,368.334106 692.973511,368.959686 691.945801,368.961792 
	C669.246399,369.008118 646.546997,368.987366 623.847534,368.962708 
	C623.364990,368.962189 622.882629,368.765198 622.077393,368.361542 
z" data-index="57"></path>
<path fill="#2E1504" opacity="1.000000" stroke="none" d="
M340.501709,264.930176 
	C345.736572,250.396255 349.069061,235.281967 350.752258,219.427490 
	C350.668213,224.097244 350.924866,229.198532 349.897400,234.026550 
	C347.851562,243.639832 345.128448,253.110535 342.590179,262.614777 
	C342.364594,263.459473 341.443787,264.118469 340.501709,264.930176 
z" data-index="58" style="opacity: 1;"></path>
<path fill="#F4CE92" opacity="1.000000" stroke="none" d="
M698.630981,649.333984 
	C699.295654,656.731567 699.679077,664.432556 700.059937,673.032837 
	C700.277222,679.141541 700.497070,684.351013 700.716919,689.560486 
	C698.713928,695.308716 696.710938,701.057007 694.413208,706.993530 
	C699.283691,696.046387 699.416077,684.215698 698.988037,672.293640 
	C698.716919,664.743713 698.558594,657.189697 698.630981,649.333984 
z" data-index="59" style="opacity: 1;"></path>
<path fill="#230C03" opacity="1.000000" stroke="none" d="
M471.012512,215.351746 
	C471.476135,222.519760 472.323669,230.167191 472.265930,237.807770 
	C472.182007,248.907593 471.445038,260.002472 470.921295,271.548889 
	C470.581299,266.459473 470.026428,260.917511 470.087860,255.382385 
	C470.234253,242.195892 470.671814,229.012665 471.012512,215.351746 
z" data-index="60"></path>
<path fill="#F4CE92" opacity="1.000000" stroke="none" d="
M284.888245,583.436523 
	C285.303528,581.059448 285.785583,579.133484 286.617218,577.045898 
	C286.633301,587.812256 286.318237,598.740906 285.924194,609.666748 
	C285.898590,610.376282 285.266052,611.063965 284.486542,611.405518 
	C284.335663,604.711975 284.614136,598.374695 284.892578,592.037415 
	C284.913422,589.320862 284.934235,586.604309 284.888245,583.436523 
z" data-index="61"></path>
<path fill="#2E1504" opacity="1.000000" stroke="none" d="
M293.153839,457.954651 
	C292.427673,470.124298 291.709900,482.294434 290.949982,494.461975 
	C290.912689,495.059265 290.506592,495.633514 290.058655,496.581665 
	C289.898315,490.627625 289.841095,484.307037 290.036987,477.994263 
	C290.220215,472.090057 290.628418,466.191132 291.046173,460.297577 
	C291.119904,459.257568 291.727112,458.255341 292.542236,457.363312 
	C292.996521,457.490936 293.153839,457.954651 293.153839,457.954651 
z" data-index="62"></path>
<path fill="#230C03" opacity="1.000000" stroke="none" d="
M459.552246,381.124176 
	C459.927460,382.073212 459.921112,383.137360 459.598846,384.926941 
	C459.181366,404.746246 459.079773,423.840210 458.978210,442.934143 
	C458.831573,443.248932 458.684998,443.563721 458.295166,443.990356 
	C458.041901,424.656403 458.006439,405.210571 458.071625,385.765045 
	C458.076691,384.255280 458.787750,382.747833 459.552246,381.124176 
z" data-index="63"></path>
<path fill="#230C03" opacity="1.000000" stroke="none" d="
M466.479248,335.859741 
	C466.660065,346.851776 466.632477,357.632050 466.672791,368.844666 
	C466.179626,368.517944 465.138885,367.764587 465.129852,366.999023 
	C465.005615,356.515656 465.023071,346.030609 465.015106,335.545959 
	C465.015015,335.403351 465.135925,335.260712 465.200348,335.118042 
	C465.557190,335.294708 465.914032,335.471375 466.479248,335.859741 
z" data-index="64" style="opacity: 1;"></path>
<path fill="#2E1504" opacity="1.000000" stroke="none" d="
M284.607056,592.287903 
	C284.614136,598.374695 284.335663,604.711975 284.106689,611.512573 
	C283.518921,618.734680 282.881653,625.493347 282.047913,632.601685 
	C281.909180,626.459229 281.860626,619.963928 282.057983,613.476196 
	C282.217957,608.218872 282.591980,602.963501 283.043915,597.722168 
	C283.194946,595.970520 283.880371,594.265015 284.607056,592.287903 
z" data-index="65"></path>
<path fill="#170201" opacity="1.000000" stroke="none" d="
M564.489990,442.596954 
	C564.134399,425.737976 564.025208,408.555939 563.920288,391.373932 
	C563.905151,388.893951 563.910889,386.413879 563.917969,383.207947 
	C563.888977,382.303986 563.848938,382.125946 563.808838,381.947876 
	C563.808838,381.947876 563.957764,381.503937 563.938110,381.270874 
	C564.274658,381.911194 564.942322,382.784912 564.941223,383.657837 
	C564.917908,403.196594 564.820923,422.735260 564.489990,442.596954 
z" data-index="66"></path>
<path fill="#170201" opacity="1.000000" stroke="none" d="
M605.175781,381.980896 
	C605.115295,401.663055 605.054810,421.345245 604.918213,441.487335 
	C604.564636,441.193970 604.043823,440.440277 604.045105,439.687439 
	C604.077698,420.397858 604.164795,401.108368 604.480591,381.501526 
	C604.718689,381.184204 604.991394,381.259064 605.004272,381.382385 
	C605.070007,381.664124 605.122864,381.822510 605.175781,381.980896 
z" data-index="67" style="opacity: 1;"></path>
<path fill="#F4CE92" opacity="1.000000" stroke="none" d="
M288.513062,543.879456 
	C288.376282,539.290405 288.621704,534.599304 288.830505,529.467163 
	C289.223358,521.664307 289.652832,514.302368 290.147156,506.487244 
	C290.781616,506.712433 291.875031,507.416687 291.843048,508.065460 
	C291.281891,519.443176 290.596100,530.814880 289.875214,542.184021 
	C289.840363,542.733643 289.234955,543.247131 288.513062,543.879456 
z" data-index="68"></path>
<path fill="#2E1504" opacity="1.000000" stroke="none" d="
M418.922852,368.756348 
	C418.536285,368.970154 418.569946,368.484680 418.618530,367.992249 
	C418.605469,367.332520 418.543762,367.165161 418.482056,366.997803 
	C418.587616,350.332825 418.693176,333.667877 418.741364,316.543518 
	C418.805145,314.699188 418.926300,313.314178 419.081787,311.516479 
	C419.408203,312.182739 419.951569,313.260986 419.954895,314.340851 
	C420.007782,331.465363 420.002228,348.590149 419.961853,365.714752 
	C419.959625,366.657867 419.536591,367.599976 418.922852,368.756348 
z" data-index="69"></path>

<path fill="#2E1504" opacity="1.000000" stroke="none" d="
M704.572510,520.413269 
	C705.185974,533.060364 705.541992,546.018188 705.855103,559.434448 
	C705.624268,559.626526 705.278198,559.364319 705.271057,559.093140 
	C704.933899,546.303894 704.626160,533.513916 704.572510,520.413269 
z" data-index="71"></path>
<path fill="#170201" opacity="1.000000" stroke="none" d="
M470.231537,279.774292 
	C473.613281,279.597137 477.217438,279.954529 480.823486,279.975250 
	C493.905487,280.050446 506.988159,280.012848 520.533569,280.295258 
	C520.996582,280.572693 520.983215,280.979858 520.983215,280.979858 
	C505.718842,280.989288 490.454376,281.023712 475.190216,280.970642 
	C473.610809,280.965179 472.033234,280.438995 470.231537,279.774292 
z" data-index="72"></path>
<path fill="#2E1504" opacity="1.000000" stroke="none" d="
M755.584961,664.313538 
	C755.276672,674.084473 754.698120,684.172119 753.994019,694.630005 
	C753.591980,694.423035 753.039307,693.825500 753.079956,693.271545 
	C753.781433,683.721252 754.556152,674.176331 755.584961,664.313538 
z" data-index="73"></path>
<path fill="#230C03" opacity="1.000000" stroke="none" d="
M710.928406,369.196350 
	C717.717041,369.015991 724.350891,369.004761 730.979248,369.190002 
	C732.908203,369.243896 734.821472,369.859253 736.962585,370.552124 
	C729.860107,370.922089 722.535645,371.042847 715.215088,370.920868 
	C713.726074,370.896088 712.252319,369.957611 710.928406,369.196350 
z" data-index="74"></path>
<path fill="#2E1504" opacity="1.000000" stroke="none" d="
M499.183655,192.794495 
	C495.222565,182.360489 496.935089,172.486511 503.647156,163.145828 
	C502.684753,166.003143 500.656677,168.944168 500.313873,172.069992 
	C499.570740,178.846130 499.689575,185.716812 499.183655,192.794495 
z" data-index="75"></path>
<path fill="#2E1504" opacity="1.000000" stroke="none" d="
M512.892090,250.795898 
	C509.925934,241.735291 507.024902,232.246735 504.136780,222.373138 
	C504.602936,222.162369 505.385559,222.246368 505.461639,222.524002 
	C508.001862,231.793900 510.474640,241.082291 512.892090,250.795898 
z" data-index="76" style="opacity: 1;"></path>
<path fill="#2E1504" opacity="1.000000" stroke="none" d="
M706.604248,567.381104 
	C707.390747,579.838257 707.907104,592.600220 708.320679,605.866333 
	C707.841614,605.655701 707.154114,604.948853 707.135315,604.224670 
	C706.818848,592.046387 706.585693,579.865845 706.604248,567.381104 
z" data-index="77" style="opacity: 1;"></path>
<path fill="#230C03" opacity="1.000000" stroke="none" d="
M746.686768,498.862671 
	C746.911194,506.496613 746.937073,513.761658 746.888428,521.487610 
	C746.203491,510.943939 745.593079,499.939362 745.195740,488.467407 
	C745.408875,488.000061 745.836426,488.005219 745.836426,488.005219 
	C746.053711,491.501404 746.270996,494.997559 746.686768,498.862671 
z" data-index="78"></path>
<path fill="#2E1504" opacity="1.000000" stroke="none" d="
M464.581177,152.304718 
	C465.896881,160.756790 466.955170,169.506958 468.079742,178.625610 
	C467.088715,173.108749 465.937683,167.238068 465.014313,161.331802 
	C464.564789,158.456421 464.540497,155.514572 464.581177,152.304718 
z" data-index="79"></path>
<path fill="#2E1504" opacity="1.000000" stroke="none" d="
M696.043152,326.654907 
	C696.461304,326.143219 696.862122,326.081787 697.567627,326.026978 
	C698.290161,333.958374 698.708130,341.883118 699.174561,350.204590 
	C698.147400,347.267487 696.539185,343.997650 696.128845,340.583832 
	C695.595947,336.150879 696.015991,331.603363 696.043152,326.654907 
z" data-index="80"></path>
<path fill="#170201" opacity="1.000000" stroke="none" d="
M567.965881,446.055481 
	C567.965881,446.055511 567.526550,445.918488 567.329041,445.800537 
	C574.685852,445.459991 582.239014,445.179688 589.794861,445.039124 
	C593.588562,444.968567 597.387024,445.152252 601.515198,445.443634 
	C601.847107,445.666321 601.471985,445.921387 600.789001,445.950439 
	C589.392639,446.004852 578.679260,446.030182 567.965881,446.055481 
z" data-index="81"></path>
<path fill="#230C03" opacity="1.000000" stroke="none" d="
M468.578735,306.266449 
	C468.225769,314.695801 467.598755,323.381927 466.902649,332.521271 
	C464.967133,324.026306 465.983521,315.238495 468.578735,306.266449 
z" data-index="82"></path>
<path fill="#230C03" opacity="1.000000" stroke="none" d="
M700.832764,689.867126 
	C700.497070,684.351013 700.277222,679.141541 700.126160,673.471680 
	C700.584595,673.011353 700.974182,673.011353 701.654968,673.017395 
	C701.958374,678.752563 701.971497,684.481812 701.978638,690.210999 
	C701.978821,690.371094 701.915161,690.531311 701.881226,690.691406 
	C701.570374,690.518860 701.259583,690.346313 700.832764,689.867126 
z" data-index="83"></path>
<path fill="#230C03" opacity="1.000000" stroke="none" d="
M737.092285,371.224518 
	C738.065674,373.300537 739.688049,375.742493 739.848389,378.276947 
	C740.242737,384.509552 739.964478,390.784729 739.892578,397.506348 
	C739.545593,393.570221 739.399658,389.156158 738.941528,384.774780 
	C738.481750,380.377106 737.710632,376.011932 737.092285,371.224518 
z" data-index="84"></path>
<path fill="#F4CE92" opacity="1.000000" stroke="none" d="
M293.477844,457.744446 
	C293.153839,457.954651 292.996521,457.490936 292.923279,457.257416 
	C293.234497,451.987457 293.618958,446.950989 294.058319,441.476654 
	C294.009430,446.537231 293.905640,452.035736 293.477844,457.744446 
z" data-index="85"></path>
<path fill="#2E1504" opacity="1.000000" stroke="none" d="
M468.035583,179.350342 
	C468.701141,185.606537 469.336884,192.327057 469.899536,199.509003 
	C469.219574,193.251846 468.612671,186.533249 468.035583,179.350342 
z" data-index="86"></path>
<path fill="#F4CE92" opacity="1.000000" stroke="none" d="
M694.045715,532.698242 
	C694.065796,539.347717 694.004211,545.686646 693.891968,552.488892 
	C693.556030,549.874756 693.188049,546.802368 693.005798,543.718933 
	C692.764526,539.637512 692.668518,535.547546 692.793579,531.208191 
	C693.077026,530.955139 693.445068,531.035522 693.629517,531.074463 
	C693.864075,531.538147 693.914124,531.962952 694.045715,532.698242 
z" data-index="87"></path>
<path fill="#2E1504" opacity="1.000000" stroke="none" d="
M460.067047,135.254700 
	C461.611237,139.960648 463.112610,145.087830 464.646729,150.591461 
	C463.127716,145.870575 461.575958,140.773239 460.067047,135.254700 
z" data-index="88"></path>
<path fill="#2E1504" opacity="1.000000" stroke="none" d="
M517.832153,264.856018 
	C516.141174,260.815979 514.520081,256.355896 512.815674,251.513519 
	C514.455566,255.566116 516.178772,260.001038 517.832153,264.856018 
z" data-index="89"></path>
<path fill="#2E1504" opacity="1.000000" stroke="none" d="
M745.896851,487.579529 
	C745.836426,488.005219 745.408875,488.000061 745.194946,487.999146 
	C744.657349,481.617035 744.333740,475.235779 744.030029,468.379944 
	C744.406616,472.303833 744.728210,476.705566 745.135315,481.099426 
	C745.322998,483.125519 745.678040,485.136169 745.896851,487.579529 
z" data-index="90"></path>
<path fill="#2E1504" opacity="1.000000" stroke="none" d="
M522.837585,277.859619 
	C521.118286,274.152496 519.470825,270.033142 517.745117,265.541992 
	C519.414368,269.262604 521.161865,273.355011 522.837585,277.859619 
z" data-index="91"></path>
<path fill="#230C03" opacity="1.000000" stroke="none" d="
M289.265594,370.932648 
	C291.274689,370.336639 293.724701,369.777618 296.580475,369.203491 
	C294.559662,369.782135 292.133087,370.375885 289.265594,370.932648 
z" data-index="92"></path>
<path fill="#2E1504" opacity="1.000000" stroke="none" d="
M696.697388,586.825317 
	C696.294678,585.577026 696.197449,584.213196 696.155640,582.441528 
	C696.474915,583.592407 696.738892,585.151001 696.697388,586.825317 
z" data-index="93"></path>
<path fill="#2E1504" opacity="1.000000" stroke="none" d="
M439.994385,303.335144 
	C438.879211,304.957123 437.417999,306.571594 435.640961,308.266479 
	C436.766174,306.673798 438.207275,305.000702 439.994385,303.335144 
z" data-index="94"></path>

<path fill="#2E1504" opacity="1.000000" stroke="none" d="
M279.889709,716.840149 
	C278.892700,716.046814 277.919189,714.900513 276.851868,713.438965 
	C277.809753,714.244873 278.861481,715.366028 279.889709,716.840149 
z" data-index="96" style="opacity: 1;"></path>
<path fill="#2E1504" opacity="1.000000" stroke="none" d="
M273.906677,707.804688 
	C273.172272,706.761658 272.475250,705.336670 271.689331,703.572327 
	C272.381653,704.629517 273.162811,706.026123 273.906677,707.804688 
z" data-index="97"></path>
<path fill="#2E1504" opacity="1.000000" stroke="none" d="
M359.037476,158.747849 
	C359.221893,157.602097 359.771240,156.393661 360.607147,155.011093 
	C360.396606,156.119705 359.899506,157.402435 359.037476,158.747849 
z" data-index="98"></path>
<path fill="#2E1504" opacity="1.000000" stroke="none" d="
M521.344727,280.981506 
	C520.983215,280.979858 520.996582,280.572693 520.996948,280.369019 
	C521.598450,279.720795 522.199585,279.276245 522.727905,278.493011 
	C524.790894,279.919678 523.941833,280.683929 521.344727,280.981506 
z" data-index="99"></path>
<path fill="#2E1504" opacity="1.000000" stroke="none" d="
M363.188873,151.890778 
	C363.355957,151.012833 363.882355,150.133102 364.690857,149.126373 
	C364.498047,149.962601 364.023132,150.925812 363.188873,151.890778 
z" data-index="100"></path>
<path fill="#2E1504" opacity="1.000000" stroke="none" d="
M705.806519,563.151489 
	C706.309082,563.450989 706.593933,563.913513 706.852051,564.666870 
	C706.413086,564.409973 706.000916,563.862305 705.806519,563.151489 
z" data-index="101"></path>
<path fill="#230C03" opacity="1.000000" stroke="none" d="
M471.975037,304.842285 
	C471.216888,305.076782 470.487396,305.053375 469.398804,305.101196 
	C469.807343,304.785980 470.574982,304.399506 471.696411,304.040283 
	C472.034698,304.239807 472.019196,304.412109 471.975037,304.842285 
z" data-index="102"></path>
<path fill="#2E1504" opacity="1.000000" stroke="none" d="
M434.019104,309.323914 
	C433.891144,309.963074 433.423950,310.590698 432.667877,311.294800 
	C432.812653,310.684998 433.246277,309.998688 434.019104,309.323914 
z" data-index="103"></path>
<path fill="#2E1504" opacity="1.000000" stroke="none" d="
M361.856720,153.619766 
	C361.800293,153.135574 362.079285,152.616348 362.622192,151.963501 
	C362.654785,152.414841 362.423462,152.999786 361.856720,153.619766 
z" data-index="104"></path>
<path fill="#2E1504" opacity="1.000000" stroke="none" d="
M459.645386,133.168030 
	C459.933533,133.423935 460.010101,133.850830 460.143921,134.601746 
	C459.945404,134.396851 459.689606,133.867950 459.645386,133.168030 
z" data-index="105"></path>
<path fill="#230C03" opacity="1.000000" stroke="none" d="
M288.091614,371.845581 
	C288.017822,371.628845 288.208862,371.315460 288.663452,370.906006 
	C288.736755,371.122925 288.546570,371.435913 288.091614,371.845581 
z" data-index="106"></path>
<path fill="#2E1504" opacity="1.000000" stroke="none" d="
M435.031921,308.294525 
	C435.168091,308.592865 435.010101,308.920074 434.568420,309.291626 
	C434.435760,308.998444 434.586792,308.660919 435.031921,308.294525 
z" data-index="107"></path>
<path fill="#2E1504" opacity="1.000000" stroke="none" d="
M432.038330,311.302887 
	C432.178986,311.606873 432.024536,311.934082 431.586792,312.300903 
	C431.450073,312.002411 431.596649,311.664276 432.038330,311.302887 
z" data-index="108"></path>
<path fill="#2E1504" opacity="1.000000" stroke="none" d="
M441.037018,302.305817 
	C441.180237,302.612488 441.029327,302.940765 440.593536,303.303833 
	C440.453400,303.001526 440.598145,302.664459 441.037018,302.305817 
z" data-index="109"></path>
<path fill="#2E1504" opacity="1.000000" stroke="none" d="
M442.036987,301.305603 
	C442.179749,301.612335 442.028687,301.941437 441.591888,302.304260 
	C441.451843,302.001282 441.597504,301.664612 442.036987,301.305603 
z" data-index="110"></path>
<path fill="#2E1504" opacity="1.000000" stroke="none" d="
M443.037567,300.307434 
	C443.180511,300.615082 443.029480,300.944214 442.592468,301.306274 
	C442.452179,301.002472 442.597900,300.665710 443.037567,300.307434 
z" data-index="111"></path>
<path fill="#2E1504" opacity="1.000000" stroke="none" d="
M281.804199,719.255737 
	C281.566132,719.319458 281.228607,719.056091 280.751038,718.500244 
	C280.975586,718.448059 281.340179,718.688354 281.804199,719.255737 
z" data-index="112"></path>
<path fill="#2E1504" opacity="1.000000" stroke="none" d="
M280.701477,718.065918 
	C280.473206,718.110718 280.213928,717.866211 279.867310,717.359375 
	C280.076813,717.323608 280.373657,717.550110 280.701477,718.065918 
z" data-index="113" style="opacity: 1;"></path>
<path fill="#2E1504" opacity="1.000000" stroke="none" d="
M361.085938,154.803253 
	C360.938599,154.589417 361.054474,154.249786 361.388519,153.748871 
	C361.520844,153.950882 361.434998,154.314178 361.085938,154.803253 
z" data-index="114"></path>
<path fill="#F4CE92" opacity="1.000000" stroke="none" d="
M693.136353,708.857544 
	C692.849426,708.782166 692.717346,708.569336 692.585327,708.356506 
	C692.714844,708.311523 692.844299,708.266541 693.184937,708.270508 
	C693.396118,708.319458 693.291260,708.720154 693.136353,708.857544 
z" data-index="115"></path>
<path fill="#2E1504" opacity="1.000000" stroke="none" d="
M443.893066,299.881775 
	C444.013733,300.048798 443.906769,300.316376 443.779022,300.369293 
	C443.555725,300.178772 443.460175,299.935303 443.364655,299.691864 
	C443.500580,299.699493 443.636505,299.707123 443.893066,299.881775 
z" data-index="116"></path>
<path fill="#F4CE92" opacity="1.000000" stroke="none" d="
M693.434570,708.183411 
	C693.318298,707.912354 693.492004,707.584595 693.938721,707.162048 
	C694.049377,707.420410 693.886963,707.773560 693.434570,708.183411 
z" data-index="117"></path>
<path fill="#96703F" opacity="1.000000" stroke="none" d="
M687.666077,382.046753 
	C687.492310,382.309692 687.223938,382.178436 687.176819,381.845551 
	C687.080811,381.348145 687.031860,381.183594 686.982971,381.019073 
	C686.982971,381.019073 687.157776,380.849945 687.246704,380.765442 
	C687.503723,381.048523 687.671814,381.416138 687.666077,382.046753 
z" data-index="118"></path>
<path fill="#F4CE92" opacity="1.000000" stroke="none" d="
M418.777832,442.806000 
	C419.058716,443.093231 419.091614,443.261383 419.178711,443.681549 
	C418.902924,443.648376 418.573029,443.363190 418.144409,442.751953 
	C418.207062,442.512939 418.368500,442.599915 418.777832,442.806000 
z" data-index="119"></path>
<path fill="#482902" opacity="1.000000" stroke="none" d="
M611.261841,203.560455 
	C608.030823,207.729630 604.016907,211.173279 601.703674,215.521667 
	C600.458496,217.862167 601.606262,221.934784 602.632263,224.893753 
	C603.634216,227.783401 604.125122,230.623764 601.349487,231.783173 
	C599.243469,232.662842 595.634399,232.471878 593.865112,231.168182 
	C587.935364,226.798874 586.364990,218.096024 590.411621,210.422211 
	C593.630798,204.317551 598.029419,198.834885 602.032349,192.718079 
	C610.276123,193.888626 612.377380,196.414612 611.261841,203.560455 
z" data-index="120" style="opacity: 1;"></path>
<path fill="#2E1504" opacity="1.000000" stroke="none" d="
M273.671478,588.882080 
	C273.819641,590.463257 273.759216,592.403809 273.452271,594.660645 
	C273.291473,593.065063 273.377197,591.153320 273.671478,588.882080 
z" data-index="121"></path>
<path fill="#2E1504" opacity="1.000000" stroke="none" d="
M274.706848,571.979980 
	C274.827179,573.529419 274.762695,575.441406 274.452515,577.664673 
	C274.311890,576.098083 274.416962,574.220337 274.706848,571.979980 
z" data-index="122" style="opacity: 1;"></path>
<path fill="#482902" opacity="1.000000" stroke="none" d="
M686.081787,276.616821 
	C684.950867,278.157898 683.195374,279.146942 682.277893,280.648163 
	C679.174744,285.725922 676.395386,291.000458 673.439392,296.169556 
	C671.550598,299.472412 669.020935,301.739807 664.971619,299.867462 
	C661.460632,298.244049 660.588928,294.122467 662.680176,290.051453 
	C665.478271,284.604218 668.445312,279.239044 671.079163,273.714386 
	C672.122681,271.525604 672.466919,269.003479 673.091309,266.221100 
	C680.064087,262.796417 684.717102,267.900330 684.979675,274.660034 
	C685.001343,275.216827 685.541748,275.753448 686.081787,276.616821 
z" data-index="123" style="opacity: 1;"></path>
<path fill="#482902" opacity="1.000000" stroke="none" d="
M661.083618,253.899902 
	C657.232422,260.635468 653.560303,267.514496 649.296814,274.005035 
	C648.141418,275.763947 645.101929,277.414520 643.096863,277.233704 
	C639.691833,276.926666 638.281921,273.878998 639.014587,270.506012 
	C639.496826,268.285858 640.516907,266.164948 641.435791,264.060577 
	C644.267029,257.576935 647.165527,251.122696 650.036987,244.255371 
	C650.197388,243.908691 650.358765,243.963654 651.000000,244.288025 
	C654.075562,244.632141 656.671143,244.706863 659.266724,244.781601 
	C659.266724,244.781601 659.129089,244.866470 659.131592,245.211212 
	C659.764587,248.364868 660.395081,251.173752 661.025574,253.982635 
	C661.025574,253.982635 661.040344,253.897308 661.083618,253.899902 
z" data-index="124" style="opacity: 1;"></path>
<path fill="#2E1504" opacity="1.000000" stroke="none" d="
M661.078064,253.614899 
	C660.395081,251.173752 659.764587,248.364868 659.174194,245.142487 
	C661.722534,247.147797 662.696777,249.911728 661.078064,253.614899 
z" data-index="125" style="opacity: 1;"></path>
<path fill="#2E1504" opacity="1.000000" stroke="none" d="
M659.056091,244.460022 
	C656.671143,244.706863 654.075562,244.632141 651.254761,244.310104 
	C653.634827,244.088013 656.240173,244.113235 659.056091,244.460022 
z" data-index="126" style="opacity: 1;"></path>
<path fill="#482902" opacity="1.000000" stroke="none" d="
M637.345093,231.658279 
	C635.145447,235.755112 632.681702,239.560165 630.262573,243.393448 
	C628.587646,246.047638 627.023621,248.772598 625.319763,251.407562 
	C623.535645,254.166763 621.266785,255.914780 617.885681,253.960907 
	C614.654480,252.093628 612.957581,249.410416 614.644653,245.684021 
	C617.165649,240.115509 620.011475,234.692230 622.464844,229.095718 
	C623.632080,226.433151 624.212524,223.513397 625.050049,220.293015 
	C625.186829,219.956085 625.330566,220.103271 625.477905,220.106918 
	C636.481323,220.379349 636.440186,222.783096 637.345093,231.658279 
z" data-index="127" style="opacity: 1;"></path>
<path fill="#482902" opacity="1.000000" stroke="none" d="
M625.032227,219.741302 
	C624.810852,219.878876 624.528259,219.714966 624.160400,219.284775 
	C624.345398,219.207901 624.643982,219.348343 625.032227,219.741302 
z" data-index="128"></path>
<path fill="#FEE2A4" opacity="1.000000" stroke="none" d="
M686.515869,381.001831 
	C687.031860,381.183594 687.080811,381.348145 687.055054,381.759094 
	C686.809021,382.014557 686.637634,382.023590 686.208740,382.043762 
	C659.955078,382.039703 633.959045,382.024506 607.497864,382.022705 
	C606.620056,382.020844 606.207336,382.005646 605.485229,381.985657 
	C605.122864,381.822510 605.070007,381.664124 605.080933,381.263611 
	C632.112793,381.009216 659.080811,380.996918 686.515869,381.001831 
z" data-index="129"></path>
<path fill="#F4CE92" opacity="1.000000" stroke="none" d="
M422.091003,446.381775 
	C432.965851,445.964417 443.931030,445.942017 455.351990,445.901337 
	C454.659393,446.563232 453.519867,447.815277 452.361176,447.833252 
	C442.805511,447.981842 433.246185,447.918396 423.688538,447.843140 
	C423.183350,447.839203 422.683624,447.147980 422.091003,446.381775 
z" data-index="130"></path>
<path fill="#482902" opacity="1.000000" stroke="none" d="
M459.123108,442.901611 
	C459.079773,423.840210 459.181366,404.746246 459.533356,385.321442 
	C459.806763,403.987885 459.829742,422.985168 459.708862,442.422089 
	C459.564972,442.861694 459.268036,442.869049 459.123108,442.901611 
z" data-index="131"></path>
<path fill="#96703F" opacity="1.000000" stroke="none" d="
M567.976318,446.208252 
	C578.679260,446.030182 589.392639,446.004852 600.575439,446.026917 
	C601.044922,446.074341 601.010925,446.401245 600.544189,446.653351 
	C589.383484,446.826019 578.689514,446.746582 567.995544,446.667145 
	C567.995544,446.667145 567.986694,446.361053 567.976318,446.208252 
z" data-index="132"></path>
<path fill="#FEE2A4" opacity="1.000000" stroke="none" d="
M568.239075,447.026794 
	C578.689514,446.746582 589.383484,446.826019 600.540833,446.817627 
	C600.502258,447.109436 599.997253,447.823944 599.498901,447.819366 
	C589.159729,447.724121 578.821228,447.547180 568.239075,447.026794 
z" data-index="133"></path>
<path fill="#F4CE92" opacity="1.000000" stroke="none" d="
M287.538452,558.870483 
	C287.405396,554.935669 287.649750,550.897400 287.976837,546.439514 
	C288.011627,550.268982 287.963745,554.517944 287.538452,558.870483 
z" data-index="134"></path>
<path fill="#F4CE92" opacity="1.000000" stroke="none" d="
M287.226013,573.752930 
	C286.935272,569.991394 286.946930,565.942810 287.031799,561.464355 
	C287.246124,565.178345 287.387268,569.322144 287.226013,573.752930 
z" data-index="135"></path>
<path fill="#F4CE92" opacity="1.000000" stroke="none" d="
M420.201111,445.123047 
	C420.427765,445.021759 420.832611,445.207977 421.421021,445.678284 
	C421.196198,445.778412 420.787781,445.594452 420.201111,445.123047 
z" data-index="136"></path>
<path fill="#F4CE92" opacity="1.000000" stroke="none" d="
M419.171021,444.049561 
	C419.359619,444.005981 419.655701,444.221466 420.060120,444.697876 
	C419.871765,444.742065 419.575134,444.525299 419.171021,444.049561 
z" data-index="137"></path>
<path fill="#8D5325" opacity="1.000000" stroke="none" d="
M418.393005,367.111084 
	C418.543762,367.165161 418.605469,367.332520 418.578339,367.752319 
	C418.258301,367.780518 418.196442,367.520386 418.393005,367.111084 
z" data-index="138"></path>
<path fill="#482902" opacity="1.000000" stroke="none" d="
M344.367950,380.880402 
	C344.861267,380.655792 345.723846,380.516052 346.788177,380.584015 
	C346.239044,380.849579 345.488098,380.907410 344.367950,380.880402 
z" data-index="139"></path>
<path fill="#E0B67F" opacity="1.000000" stroke="none" d="
M563.611755,381.956238 
	C563.848938,382.125946 563.888977,382.303986 563.849976,382.744171 
	C563.498047,382.885712 563.295227,382.691742 563.093445,382.222412 
	C563.024231,382.020386 563.414673,381.964630 563.611755,381.956238 
z" data-index="140"></path>
</svg>